<?xml version="1.0" encoding="utf-8" standalone="no"?>
<!DOCTYPE svg PUBLIC "-//W3C//DTD SVG 1.1//EN"
  "http://www.w3.org/Graphics/SVG/1.1/DTD/svg11.dtd">
<!-- Created with matplotlib (http://matplotlib.org/) -->
<svg height="432pt" version="1.1" viewBox="0 0 576 432" width="576pt" xmlns="http://www.w3.org/2000/svg" xmlns:xlink="http://www.w3.org/1999/xlink">
 <defs>
  <style type="text/css">
*{stroke-linecap:butt;stroke-linejoin:round;}
  </style>
 </defs>
 <g id="figure_1">
  <g id="patch_1">
   <path d="
M0 432
L576 432
L576 0
L0 0
z
" style="fill:none;"/>
  </g>
  <g id="axes_1">
   <g id="patch_2">
    <path d="
M72 388.8
L518.4 388.8
L518.4 43.2
L72 43.2
z
" style="fill:none;"/>
   </g>
   <g id="patch_3">
    <path clip-path="url(#p7ff5b81e1d)" d="
M495.75 388.8
L495.75 43.2
L518.4 43.2
L518.4 388.8
z
" style="fill:#0000ff;opacity:0.1;stroke:#000000;"/>
   </g>
   <g id="line2d_1">
    <path clip-path="url(#p7ff5b81e1d)" d="
M72 212.47
L84.4 211.521
L96.8 210.555
L109.2 209.571
L121.6 208.569
L134 207.547
L146.4 206.504
L158.8 205.44
L171.2 204.355
L183.6 203.246
L196 202.113
L208.4 200.956
L220.8 199.773
L233.2 198.563
L245.6 197.324
L258 196.057
L270.4 194.76
L282.8 193.431
L295.2 192.069
L307.6 190.673
L320 189.241
L332.4 187.772
L344.8 186.265
L357.2 184.716
L369.6 183.124
L382 181.488
L394.4 179.805
L406.8 178.073
L419.2 176.29
L431.6 174.452
L444 172.557
L456.4 170.603
L468.8 168.585
L481.2 166.5
L493.6 164.345
L506 162.115
L518.4 159.806" style="fill:none;stroke:#0072bd;stroke-dasharray:5.000000,5.000000;stroke-dashoffset:0.0;stroke-width:2;"/>
   </g>
   <g id="line2d_2">
    <path clip-path="url(#p7ff5b81e1d)" d="
M72 152.844
L84.4 154.743
L96.8 156.599
L109.2 158.41
L121.6 160.178
L134 161.904
L146.4 163.588
L158.8 165.232
L171.2 166.837
L183.6 168.404
L196 169.934
L208.4 171.43
L220.8 172.89
L233.2 174.319
L245.6 175.715
L258 177.081
L270.4 178.418
L282.8 179.725
L295.2 181.005
L307.6 182.258
L320 183.485
L332.4 184.687
L344.8 185.866
L357.2 187.02
L369.6 188.152
L382 189.262
L394.4 190.351
L406.8 191.419
L419.2 192.467
L431.6 193.495
L444 194.505
L456.4 195.497
L468.8 196.471
L481.2 197.427
L493.6 198.367
L506 199.291
L518.4 200.199" style="fill:none;stroke:#d95319;stroke-dasharray:8.000000,4.000000,2.000000,4.000000,2.000000,4.000000;stroke-dashoffset:0.0;stroke-width:2;"/>
   </g>
   <g id="line2d_3">
    <path clip-path="url(#p7ff5b81e1d)" d="
M72 -21.9079
M81.924 -1
L84.4 4.21632
L96.8 25.5178
L109.2 43.325
L121.6 58.5085
L134 71.6583
L146.4 83.1938
L158.8 93.4226
L171.2 102.575
L183.6 110.829
L196 118.322
L208.4 125.166
L220.8 131.45
L233.2 137.246
L245.6 142.614
L258 147.606
L270.4 152.263
L282.8 156.621
L295.2 160.71
L307.6 164.558
L320 168.188
L332.4 171.619
L344.8 174.869
L357.2 177.953
L369.6 180.885
L382 183.678
L394.4 186.341
L406.8 188.885
L419.2 191.319
L431.6 193.649
L444 195.883
L456.4 198.028
L468.8 200.09
L481.2 202.073
L493.6 203.983
L506 205.823
L518.4 207.599" style="fill:none;stroke:#edb120;stroke-dasharray:10.000000,5.000000,100.000000,5.000000;stroke-dashoffset:0.0;stroke-width:2;"/>
   </g>
   <g id="line2d_4">
    <path clip-path="url(#p7ff5b81e1d)" d="
M72 53.7691
L84.4 73.1997
L96.8 89.117
L109.2 102.519
L121.6 114.041
L134 124.114
L146.4 133.038
L158.8 141.032
L171.2 148.26
L183.6 154.847
L196 160.891
L208.4 166.469
L220.8 171.644
L233.2 176.467
L245.6 180.98
L258 185.22
L270.4 189.214
L282.8 192.989
L295.2 196.567
L307.6 199.966
L320 203.203
L332.4 206.291
L344.8 209.243
L357.2 212.071
L369.6 214.784
L382 217.391
L394.4 219.899
L406.8 222.316
L419.2 224.649
L431.6 226.902
L444 229.082
L456.4 231.193
L468.8 233.239
L481.2 235.224
L493.6 237.153
L506 239.028
L518.4 240.853" style="fill:none;stroke:#7e2f8e;stroke-dasharray:10.000000,5.000000,10.000000,5.000000,100.000000,5.000000;stroke-dashoffset:0.0;stroke-width:2;"/>
   </g>
   <g id="line2d_5">
    <path clip-path="url(#p7ff5b81e1d)" d="
M72 352.287
L84.4 352.287
L96.8 352.287
L109.2 352.287
L121.6 352.287
L134 352.287
L146.4 352.287
L158.8 352.287
L171.2 352.287
L183.6 352.287
L196 352.287
L208.4 352.287
L220.8 352.287
L233.2 352.287
L245.6 352.287
L258 352.287
L270.4 352.287
L282.8 352.287
L295.2 352.287
L307.6 352.287
L320 352.287
L332.4 352.287
L344.8 352.287
L357.2 352.287
L369.6 352.287
L382 352.287
L394.4 352.287
L406.8 352.287
L419.2 352.287
L431.6 352.287
L444 352.287
L456.4 352.287
L468.8 352.287
L481.2 352.287
L493.6 352.287
L506 352.287
L518.4 352.287" style="fill:none;stroke:#77ac30;stroke-dasharray:10.000000,5.000000,10.000000,5.000000,10.000000,5.000000,100.000000,5.000000;stroke-dashoffset:0.0;stroke-width:2;"/>
   </g>
   <g id="line2d_6">
    <path clip-path="url(#p7ff5b81e1d)" d="
M72 313.779
L84.4 320.993
L96.8 326.762
L109.2 331.502
L121.6 335.473
L134 338.849
L146.4 341.749
L158.8 344.262
L171.2 346.452
L183.6 348.37
L196 350.055
L208.4 351.54
L220.8 352.849
L233.2 354.005
L245.6 355.025
L258 355.925
L270.4 356.718
L282.8 357.416
L295.2 358.028
L307.6 358.563
L320 359.028
L332.4 359.431
L344.8 359.777
L357.2 360.071
L369.6 360.319
L382 360.524
L394.4 360.69
L406.8 360.821
L419.2 360.919
L431.6 360.988
L444 361.03
L456.4 361.047
L468.8 361.042
L481.2 361.015
L493.6 360.969
L506 360.904
L518.4 360.824" style="fill:none;stroke:#4dbeee;stroke-linecap:square;stroke-width:2;"/>
   </g>
   <g id="line2d_7">
    <path clip-path="url(#p7ff5b81e1d)" d="
M72 316.324
L84.4 315.581
L96.8 314.959
L109.2 314.434
L121.6 313.991
L134 313.614
L146.4 313.295
L158.8 313.025
L171.2 312.798
L183.6 312.609
L196 312.453
L208.4 312.326
L220.8 312.225
L233.2 312.148
L245.6 312.092
L258 312.055
L270.4 312.035
L282.8 312.03
L295.2 312.038
L307.6 312.06
L320 312.093
L332.4 312.136
L344.8 312.188
L357.2 312.249
L369.6 312.318
L382 312.393
L394.4 312.475
L406.8 312.563
L419.2 312.657
L431.6 312.755
L444 312.858
L456.4 312.964
L468.8 313.075
L481.2 313.189
L493.6 313.306
L506 313.426
L518.4 313.548" style="fill:none;stroke:#a2142f;stroke-dasharray:8.000000,4.000000,2.000000,4.000000;stroke-dashoffset:0.0;stroke-width:2;"/>
   </g>
   <g id="line2d_8">
    <path clip-path="url(#p7ff5b81e1d)" d="
M72 357.382
L518.4 357.382" style="fill:none;stroke:#000000;stroke-dasharray:1.000000,3.000000;stroke-dashoffset:0.0;stroke-width:0.5;"/>
   </g>
   <g id="matplotlib.axis_1">
    <g id="xtick_1">
     <g id="line2d_9">
      <defs>
       <path d="
M0 0
L0 -4" id="m93b0483c22" style="stroke:#000000;stroke-width:0.5;"/>
      </defs>
      <g>
       <use style="stroke:#000000;stroke-width:0.5;" x="72.0" xlink:href="#m93b0483c22" y="388.8"/>
      </g>
     </g>
     <g id="line2d_10">
      <defs>
       <path d="
M0 0
L0 4" id="m741efc42ff" style="stroke:#000000;stroke-width:0.5;"/>
      </defs>
      <g>
       <use style="stroke:#000000;stroke-width:0.5;" x="72.0" xlink:href="#m741efc42ff" y="43.2"/>
      </g>
     </g>
     <g id="text_1">
      <!-- $2$ -->
      <defs>
       <path d="
M41.7031 15.4531
L39.9062 15.4531
C38.9062 8.375 38.0938 7.17188 37.7031 6.5625
C37.2031 5.76562 30 5.76562 28.5938 5.76562
L9.40625 5.76562
C13 9.67188 20 16.75 28.5 24.9531
C34.5938 30.7344 41.7031 37.5312 41.7031 47.4219
C41.7031 59.2188 32.2969 66 21.7969 66
C10.7969 66 4.09375 56.3125 4.09375 47.3438
C4.09375 43.4375 7 42.9375 8.20312 42.9375
C9.20312 42.9375 12.2031 43.5469 12.2031 47.0312
C12.2031 50.1094 9.59375 51 8.20312 51
C7.59375 51 7 50.9062 6.59375 50.7031
C8.5 59.2188 14.2969 63.4062 20.4062 63.4062
C29.0938 63.4062 34.7969 56.5156 34.7969 47.4219
C34.7969 38.7344 29.7031 31.25 24 24.75
L4.09375 2.28125
L4.09375 0
L39.2969 0
z
" id="CMR17-50"/>
      </defs>
      <g transform="translate(69.0735048743 401.317984317)scale(0.12 -0.12)">
       <use transform="scale(0.996264009963)" xlink:href="#CMR17-50"/>
      </g>
     </g>
    </g>
    <g id="xtick_2">
     <g id="line2d_11">
      <g>
       <use style="stroke:#000000;stroke-width:0.5;" x="121.6" xlink:href="#m93b0483c22" y="388.8"/>
      </g>
     </g>
     <g id="line2d_12">
      <g>
       <use style="stroke:#000000;stroke-width:0.5;" x="121.6" xlink:href="#m741efc42ff" y="43.2"/>
      </g>
     </g>
     <g id="text_2">
      <!-- $4$ -->
      <defs>
       <path d="
M33.5938 64.3281
C33.5938 66.4062 33.5 66.5 31.7031 66.5
L2 19.5938
L2 17
L27.7969 17
L27.7969 7.14062
C27.7969 3.5 27.5938 2.5 20.5938 2.5
L18.7031 2.5
L18.7031 0
C21.9062 0 27.2969 0 30.7031 0
C34.0938 0 39.5 0 42.7031 0
L42.7031 2.5
L40.7969 2.5
C33.7969 2.5 33.5938 3.5 33.5938 7.14062
L33.5938 17
L43.7969 17
L43.7969 19.5938
L33.5938 19.5938
z

M28.0938 57.7656
L28.0938 19.5938
L4 19.5938
z
" id="CMR17-52"/>
      </defs>
      <g transform="translate(118.673504874 401.317984317)scale(0.12 -0.12)">
       <use transform="scale(0.996264009963)" xlink:href="#CMR17-52"/>
      </g>
     </g>
    </g>
    <g id="xtick_3">
     <g id="line2d_13">
      <g>
       <use style="stroke:#000000;stroke-width:0.5;" x="171.2" xlink:href="#m93b0483c22" y="388.8"/>
      </g>
     </g>
     <g id="line2d_14">
      <g>
       <use style="stroke:#000000;stroke-width:0.5;" x="171.2" xlink:href="#m741efc42ff" y="43.2"/>
      </g>
     </g>
     <g id="text_3">
      <!-- $6$ -->
      <defs>
       <path d="
M10.5938 34
C10.5938 57.6562 21.7969 63 28.2969 63
C30.4062 63 35.5 62.6406 37.5 59
C35.9062 59 32.9062 59 32.9062 55.5156
C32.9062 52.8281 35.0938 51.9219 36.5 51.9219
C37.4062 51.9219 40.0938 52.3125 40.0938 55.625
C40.0938 61.7812 35.0938 65.2969 28.2031 65.2969
C16.2969 65.2969 3.79688 52.9688 3.79688 31
C3.79688 3.95312 15.0938 -2 23.0938 -2
C32.7969 -2 42 6.67188 42 20.0469
C42 32.5156 33.9062 41.5938 23.7031 41.5938
C17.5938 41.5938 13.0938 37.6094 10.5938 30.625
z

M23.0938 0.390625
C10.7969 0.390625 10.7969 18.75 10.7969 22.4375
C10.7969 29.625 14.2031 40 23.5 40
C25.2031 40 30.0938 40 33.4062 33.125
C35.2031 29.2188 35.2031 25.1406 35.2031 20.1406
C35.2031 14.75 35.2031 10.7812 33.0938 6.78125
C30.9062 2.67188 27.7031 0.390625 23.0938 0.390625" id="CMR17-54"/>
      </defs>
      <g transform="translate(168.273504874 401.317984317)scale(0.12 -0.12)">
       <use transform="scale(0.996264009963)" xlink:href="#CMR17-54"/>
      </g>
     </g>
    </g>
    <g id="xtick_4">
     <g id="line2d_15">
      <g>
       <use style="stroke:#000000;stroke-width:0.5;" x="220.8" xlink:href="#m93b0483c22" y="388.8"/>
      </g>
     </g>
     <g id="line2d_16">
      <g>
       <use style="stroke:#000000;stroke-width:0.5;" x="220.8" xlink:href="#m741efc42ff" y="43.2"/>
      </g>
     </g>
     <g id="text_4">
      <!-- $8$ -->
      <defs>
       <path d="
M27.2031 35.375
C33.5 38.5625 39.9062 43.3281 39.9062 50.9844
C39.9062 60.0312 31.0938 65.2969 23 65.2969
C13.9062 65.2969 5.90625 58.7344 5.90625 49.6875
C5.90625 47.2031 6.5 42.9219 10.4062 39.1406
C11.4062 38.1562 15.5938 35.1719 18.2969 33.2812
C13.7969 30.9844 3.29688 25.5312 3.29688 14.5938
C3.29688 4.35938 13.0938 -2 22.7969 -2
C33.5 -2 42.5 5.65625 42.5 15.7969
C42.5 24.8438 36.4062 29.0312 32.4062 31.7031
z

M14.0938 44.125
C13.2969 44.625 9.29688 47.7031 9.29688 52.375
C9.29688 58.4375 15.5938 63 22.7969 63
C30.7031 63 36.5 57.4531 36.5 50.9844
C36.5 41.7344 26.0938 36.4688 25.5938 36.4688
C25.5 36.4688 25.4062 36.4688 24.5938 37.0781
z

M32.5 23.7344
C34 22.6406 38.7969 19.375 38.7969 13.2969
C38.7969 5.95312 31.4062 0.390625 23 0.390625
C13.9062 0.390625 7 6.84375 7 14.6875
C7 22.5469 13.0938 29.0938 20 32.1875
z
" id="CMR17-56"/>
      </defs>
      <g transform="translate(217.873504874 401.317984317)scale(0.12 -0.12)">
       <use transform="scale(0.996264009963)" xlink:href="#CMR17-56"/>
      </g>
     </g>
    </g>
    <g id="xtick_5">
     <g id="line2d_17">
      <g>
       <use style="stroke:#000000;stroke-width:0.5;" x="270.4" xlink:href="#m93b0483c22" y="388.8"/>
      </g>
     </g>
     <g id="line2d_18">
      <g>
       <use style="stroke:#000000;stroke-width:0.5;" x="270.4" xlink:href="#m741efc42ff" y="43.2"/>
      </g>
     </g>
     <g id="text_5">
      <!-- $10$ -->
      <defs>
       <path d="
M26.5938 63.3125
C26.5938 65.4062 26.5 65.5 25.0938 65.5
C21.2031 61.1875 15.2969 59.7969 9.70312 59.7969
C9.40625 59.7969 8.90625 59.7969 8.79688 59.5
C8.70312 59.2969 8.70312 59.0938 8.70312 57
C11.7969 57 17 57.5938 21 59.9844
L21 7.20312
C21 3.6875 20.7969 2.5 12.2031 2.5
L9.20312 2.5
L9.20312 0
C14 0 19 0 23.7969 0
C28.5938 0 33.5938 0 38.4062 0
L38.4062 2.5
L35.4062 2.5
C26.7969 2.5 26.5938 3.59375 26.5938 7.15625
z
" id="CMR17-49"/>
       <path d="
M42 31.6406
C42 37.75 41.9062 48.125 37.7031 56.1094
C34 63.1094 28.0938 65.5938 22.9062 65.5938
C18.0938 65.5938 12 63.4062 8.20312 56.2031
C4.20312 48.7188 3.79688 39.4375 3.79688 31.6406
C3.79688 25.9531 3.90625 17.2812 7 9.67188
C11.2969 -0.609375 19 -2 22.9062 -2
C27.5 -2 34.5 -0.109375 38.5938 9.375
C41.5938 16.2812 42 24.3594 42 31.6406
M22.9062 -0.40625
C16.5 -0.40625 12.7031 5.07812 11.2969 12.6875
C10.2031 18.5625 10.2031 27.1562 10.2031 32.75
C10.2031 40.4375 10.2031 46.8281 11.5 52.9219
C13.4062 61.3906 19 64 22.9062 64
C27 64 32.2969 61.2969 34.2031 53.125
C35.5 47.4375 35.5938 40.7344 35.5938 32.75
C35.5938 26.25 35.5938 18.2656 34.4062 12.375
C32.2969 1.48438 26.4062 -0.40625 22.9062 -0.40625" id="CMR17-48"/>
      </defs>
      <g transform="translate(264.547009749 401.317984317)scale(0.12 -0.12)">
       <use transform="scale(0.996264009963)" xlink:href="#CMR17-49"/>
       <use transform="translate(45.6904771171 0.0)scale(0.996264009963)" xlink:href="#CMR17-48"/>
      </g>
     </g>
    </g>
    <g id="xtick_6">
     <g id="line2d_19">
      <g>
       <use style="stroke:#000000;stroke-width:0.5;" x="320.0" xlink:href="#m93b0483c22" y="388.8"/>
      </g>
     </g>
     <g id="line2d_20">
      <g>
       <use style="stroke:#000000;stroke-width:0.5;" x="320.0" xlink:href="#m741efc42ff" y="43.2"/>
      </g>
     </g>
     <g id="text_6">
      <!-- $12$ -->
      <g transform="translate(314.147009749 401.317984317)scale(0.12 -0.12)">
       <use transform="scale(0.996264009963)" xlink:href="#CMR17-49"/>
       <use transform="translate(45.6904771171 0.0)scale(0.996264009963)" xlink:href="#CMR17-50"/>
      </g>
     </g>
    </g>
    <g id="xtick_7">
     <g id="line2d_21">
      <g>
       <use style="stroke:#000000;stroke-width:0.5;" x="369.6" xlink:href="#m93b0483c22" y="388.8"/>
      </g>
     </g>
     <g id="line2d_22">
      <g>
       <use style="stroke:#000000;stroke-width:0.5;" x="369.6" xlink:href="#m741efc42ff" y="43.2"/>
      </g>
     </g>
     <g id="text_7">
      <!-- $14$ -->
      <g transform="translate(363.747009749 401.317984317)scale(0.12 -0.12)">
       <use transform="scale(0.996264009963)" xlink:href="#CMR17-49"/>
       <use transform="translate(45.6904771171 0.0)scale(0.996264009963)" xlink:href="#CMR17-52"/>
      </g>
     </g>
    </g>
    <g id="xtick_8">
     <g id="line2d_23">
      <g>
       <use style="stroke:#000000;stroke-width:0.5;" x="419.2" xlink:href="#m93b0483c22" y="388.8"/>
      </g>
     </g>
     <g id="line2d_24">
      <g>
       <use style="stroke:#000000;stroke-width:0.5;" x="419.2" xlink:href="#m741efc42ff" y="43.2"/>
      </g>
     </g>
     <g id="text_8">
      <!-- $16$ -->
      <g transform="translate(413.347009749 401.317984317)scale(0.12 -0.12)">
       <use transform="scale(0.996264009963)" xlink:href="#CMR17-49"/>
       <use transform="translate(45.6904771171 0.0)scale(0.996264009963)" xlink:href="#CMR17-54"/>
      </g>
     </g>
    </g>
    <g id="xtick_9">
     <g id="line2d_25">
      <g>
       <use style="stroke:#000000;stroke-width:0.5;" x="468.8" xlink:href="#m93b0483c22" y="388.8"/>
      </g>
     </g>
     <g id="line2d_26">
      <g>
       <use style="stroke:#000000;stroke-width:0.5;" x="468.8" xlink:href="#m741efc42ff" y="43.2"/>
      </g>
     </g>
     <g id="text_9">
      <!-- $18$ -->
      <g transform="translate(462.947009749 401.317984317)scale(0.12 -0.12)">
       <use transform="scale(0.996264009963)" xlink:href="#CMR17-49"/>
       <use transform="translate(45.6904771171 0.0)scale(0.996264009963)" xlink:href="#CMR17-56"/>
      </g>
     </g>
    </g>
    <g id="xtick_10">
     <g id="line2d_27">
      <g>
       <use style="stroke:#000000;stroke-width:0.5;" x="518.4" xlink:href="#m93b0483c22" y="388.8"/>
      </g>
     </g>
     <g id="line2d_28">
      <g>
       <use style="stroke:#000000;stroke-width:0.5;" x="518.4" xlink:href="#m741efc42ff" y="43.2"/>
      </g>
     </g>
     <g id="text_10">
      <!-- $20$ -->
      <g transform="translate(512.547009749 401.317984317)scale(0.12 -0.12)">
       <use transform="scale(0.996264009963)" xlink:href="#CMR17-50"/>
       <use transform="translate(45.6904771171 0.0)scale(0.996264009963)" xlink:href="#CMR17-48"/>
      </g>
     </g>
    </g>
    <g id="xtick_11">
     <g id="line2d_29">
      <defs>
       <path d="
M0 0
L0 -2" id="m177f7580d0" style="stroke:#000000;stroke-width:0.5;"/>
      </defs>
      <g>
       <use style="stroke:#000000;stroke-width:0.5;" x="84.4" xlink:href="#m177f7580d0" y="388.8"/>
      </g>
     </g>
     <g id="line2d_30">
      <defs>
       <path d="
M0 0
L0 2" id="m5284c7e2a0" style="stroke:#000000;stroke-width:0.5;"/>
      </defs>
      <g>
       <use style="stroke:#000000;stroke-width:0.5;" x="84.4" xlink:href="#m5284c7e2a0" y="43.2"/>
      </g>
     </g>
    </g>
    <g id="xtick_12">
     <g id="line2d_31">
      <g>
       <use style="stroke:#000000;stroke-width:0.5;" x="96.8" xlink:href="#m177f7580d0" y="388.8"/>
      </g>
     </g>
     <g id="line2d_32">
      <g>
       <use style="stroke:#000000;stroke-width:0.5;" x="96.8" xlink:href="#m5284c7e2a0" y="43.2"/>
      </g>
     </g>
    </g>
    <g id="xtick_13">
     <g id="line2d_33">
      <g>
       <use style="stroke:#000000;stroke-width:0.5;" x="109.2" xlink:href="#m177f7580d0" y="388.8"/>
      </g>
     </g>
     <g id="line2d_34">
      <g>
       <use style="stroke:#000000;stroke-width:0.5;" x="109.2" xlink:href="#m5284c7e2a0" y="43.2"/>
      </g>
     </g>
    </g>
    <g id="xtick_14">
     <g id="line2d_35">
      <g>
       <use style="stroke:#000000;stroke-width:0.5;" x="134.0" xlink:href="#m177f7580d0" y="388.8"/>
      </g>
     </g>
     <g id="line2d_36">
      <g>
       <use style="stroke:#000000;stroke-width:0.5;" x="134.0" xlink:href="#m5284c7e2a0" y="43.2"/>
      </g>
     </g>
    </g>
    <g id="xtick_15">
     <g id="line2d_37">
      <g>
       <use style="stroke:#000000;stroke-width:0.5;" x="146.4" xlink:href="#m177f7580d0" y="388.8"/>
      </g>
     </g>
     <g id="line2d_38">
      <g>
       <use style="stroke:#000000;stroke-width:0.5;" x="146.4" xlink:href="#m5284c7e2a0" y="43.2"/>
      </g>
     </g>
    </g>
    <g id="xtick_16">
     <g id="line2d_39">
      <g>
       <use style="stroke:#000000;stroke-width:0.5;" x="158.8" xlink:href="#m177f7580d0" y="388.8"/>
      </g>
     </g>
     <g id="line2d_40">
      <g>
       <use style="stroke:#000000;stroke-width:0.5;" x="158.8" xlink:href="#m5284c7e2a0" y="43.2"/>
      </g>
     </g>
    </g>
    <g id="xtick_17">
     <g id="line2d_41">
      <g>
       <use style="stroke:#000000;stroke-width:0.5;" x="183.6" xlink:href="#m177f7580d0" y="388.8"/>
      </g>
     </g>
     <g id="line2d_42">
      <g>
       <use style="stroke:#000000;stroke-width:0.5;" x="183.6" xlink:href="#m5284c7e2a0" y="43.2"/>
      </g>
     </g>
    </g>
    <g id="xtick_18">
     <g id="line2d_43">
      <g>
       <use style="stroke:#000000;stroke-width:0.5;" x="196.0" xlink:href="#m177f7580d0" y="388.8"/>
      </g>
     </g>
     <g id="line2d_44">
      <g>
       <use style="stroke:#000000;stroke-width:0.5;" x="196.0" xlink:href="#m5284c7e2a0" y="43.2"/>
      </g>
     </g>
    </g>
    <g id="xtick_19">
     <g id="line2d_45">
      <g>
       <use style="stroke:#000000;stroke-width:0.5;" x="208.4" xlink:href="#m177f7580d0" y="388.8"/>
      </g>
     </g>
     <g id="line2d_46">
      <g>
       <use style="stroke:#000000;stroke-width:0.5;" x="208.4" xlink:href="#m5284c7e2a0" y="43.2"/>
      </g>
     </g>
    </g>
    <g id="xtick_20">
     <g id="line2d_47">
      <g>
       <use style="stroke:#000000;stroke-width:0.5;" x="233.2" xlink:href="#m177f7580d0" y="388.8"/>
      </g>
     </g>
     <g id="line2d_48">
      <g>
       <use style="stroke:#000000;stroke-width:0.5;" x="233.2" xlink:href="#m5284c7e2a0" y="43.2"/>
      </g>
     </g>
    </g>
    <g id="xtick_21">
     <g id="line2d_49">
      <g>
       <use style="stroke:#000000;stroke-width:0.5;" x="245.6" xlink:href="#m177f7580d0" y="388.8"/>
      </g>
     </g>
     <g id="line2d_50">
      <g>
       <use style="stroke:#000000;stroke-width:0.5;" x="245.6" xlink:href="#m5284c7e2a0" y="43.2"/>
      </g>
     </g>
    </g>
    <g id="xtick_22">
     <g id="line2d_51">
      <g>
       <use style="stroke:#000000;stroke-width:0.5;" x="258.0" xlink:href="#m177f7580d0" y="388.8"/>
      </g>
     </g>
     <g id="line2d_52">
      <g>
       <use style="stroke:#000000;stroke-width:0.5;" x="258.0" xlink:href="#m5284c7e2a0" y="43.2"/>
      </g>
     </g>
    </g>
    <g id="xtick_23">
     <g id="line2d_53">
      <g>
       <use style="stroke:#000000;stroke-width:0.5;" x="282.8" xlink:href="#m177f7580d0" y="388.8"/>
      </g>
     </g>
     <g id="line2d_54">
      <g>
       <use style="stroke:#000000;stroke-width:0.5;" x="282.8" xlink:href="#m5284c7e2a0" y="43.2"/>
      </g>
     </g>
    </g>
    <g id="xtick_24">
     <g id="line2d_55">
      <g>
       <use style="stroke:#000000;stroke-width:0.5;" x="295.2" xlink:href="#m177f7580d0" y="388.8"/>
      </g>
     </g>
     <g id="line2d_56">
      <g>
       <use style="stroke:#000000;stroke-width:0.5;" x="295.2" xlink:href="#m5284c7e2a0" y="43.2"/>
      </g>
     </g>
    </g>
    <g id="xtick_25">
     <g id="line2d_57">
      <g>
       <use style="stroke:#000000;stroke-width:0.5;" x="307.6" xlink:href="#m177f7580d0" y="388.8"/>
      </g>
     </g>
     <g id="line2d_58">
      <g>
       <use style="stroke:#000000;stroke-width:0.5;" x="307.6" xlink:href="#m5284c7e2a0" y="43.2"/>
      </g>
     </g>
    </g>
    <g id="xtick_26">
     <g id="line2d_59">
      <g>
       <use style="stroke:#000000;stroke-width:0.5;" x="332.4" xlink:href="#m177f7580d0" y="388.8"/>
      </g>
     </g>
     <g id="line2d_60">
      <g>
       <use style="stroke:#000000;stroke-width:0.5;" x="332.4" xlink:href="#m5284c7e2a0" y="43.2"/>
      </g>
     </g>
    </g>
    <g id="xtick_27">
     <g id="line2d_61">
      <g>
       <use style="stroke:#000000;stroke-width:0.5;" x="344.8" xlink:href="#m177f7580d0" y="388.8"/>
      </g>
     </g>
     <g id="line2d_62">
      <g>
       <use style="stroke:#000000;stroke-width:0.5;" x="344.8" xlink:href="#m5284c7e2a0" y="43.2"/>
      </g>
     </g>
    </g>
    <g id="xtick_28">
     <g id="line2d_63">
      <g>
       <use style="stroke:#000000;stroke-width:0.5;" x="357.2" xlink:href="#m177f7580d0" y="388.8"/>
      </g>
     </g>
     <g id="line2d_64">
      <g>
       <use style="stroke:#000000;stroke-width:0.5;" x="357.2" xlink:href="#m5284c7e2a0" y="43.2"/>
      </g>
     </g>
    </g>
    <g id="xtick_29">
     <g id="line2d_65">
      <g>
       <use style="stroke:#000000;stroke-width:0.5;" x="382.0" xlink:href="#m177f7580d0" y="388.8"/>
      </g>
     </g>
     <g id="line2d_66">
      <g>
       <use style="stroke:#000000;stroke-width:0.5;" x="382.0" xlink:href="#m5284c7e2a0" y="43.2"/>
      </g>
     </g>
    </g>
    <g id="xtick_30">
     <g id="line2d_67">
      <g>
       <use style="stroke:#000000;stroke-width:0.5;" x="394.4" xlink:href="#m177f7580d0" y="388.8"/>
      </g>
     </g>
     <g id="line2d_68">
      <g>
       <use style="stroke:#000000;stroke-width:0.5;" x="394.4" xlink:href="#m5284c7e2a0" y="43.2"/>
      </g>
     </g>
    </g>
    <g id="xtick_31">
     <g id="line2d_69">
      <g>
       <use style="stroke:#000000;stroke-width:0.5;" x="406.8" xlink:href="#m177f7580d0" y="388.8"/>
      </g>
     </g>
     <g id="line2d_70">
      <g>
       <use style="stroke:#000000;stroke-width:0.5;" x="406.8" xlink:href="#m5284c7e2a0" y="43.2"/>
      </g>
     </g>
    </g>
    <g id="xtick_32">
     <g id="line2d_71">
      <g>
       <use style="stroke:#000000;stroke-width:0.5;" x="431.6" xlink:href="#m177f7580d0" y="388.8"/>
      </g>
     </g>
     <g id="line2d_72">
      <g>
       <use style="stroke:#000000;stroke-width:0.5;" x="431.6" xlink:href="#m5284c7e2a0" y="43.2"/>
      </g>
     </g>
    </g>
    <g id="xtick_33">
     <g id="line2d_73">
      <g>
       <use style="stroke:#000000;stroke-width:0.5;" x="444.0" xlink:href="#m177f7580d0" y="388.8"/>
      </g>
     </g>
     <g id="line2d_74">
      <g>
       <use style="stroke:#000000;stroke-width:0.5;" x="444.0" xlink:href="#m5284c7e2a0" y="43.2"/>
      </g>
     </g>
    </g>
    <g id="xtick_34">
     <g id="line2d_75">
      <g>
       <use style="stroke:#000000;stroke-width:0.5;" x="456.4" xlink:href="#m177f7580d0" y="388.8"/>
      </g>
     </g>
     <g id="line2d_76">
      <g>
       <use style="stroke:#000000;stroke-width:0.5;" x="456.4" xlink:href="#m5284c7e2a0" y="43.2"/>
      </g>
     </g>
    </g>
    <g id="xtick_35">
     <g id="line2d_77">
      <g>
       <use style="stroke:#000000;stroke-width:0.5;" x="481.2" xlink:href="#m177f7580d0" y="388.8"/>
      </g>
     </g>
     <g id="line2d_78">
      <g>
       <use style="stroke:#000000;stroke-width:0.5;" x="481.2" xlink:href="#m5284c7e2a0" y="43.2"/>
      </g>
     </g>
    </g>
    <g id="xtick_36">
     <g id="line2d_79">
      <g>
       <use style="stroke:#000000;stroke-width:0.5;" x="493.6" xlink:href="#m177f7580d0" y="388.8"/>
      </g>
     </g>
     <g id="line2d_80">
      <g>
       <use style="stroke:#000000;stroke-width:0.5;" x="493.6" xlink:href="#m5284c7e2a0" y="43.2"/>
      </g>
     </g>
    </g>
    <g id="xtick_37">
     <g id="line2d_81">
      <g>
       <use style="stroke:#000000;stroke-width:0.5;" x="506.0" xlink:href="#m177f7580d0" y="388.8"/>
      </g>
     </g>
     <g id="line2d_82">
      <g>
       <use style="stroke:#000000;stroke-width:0.5;" x="506.0" xlink:href="#m5284c7e2a0" y="43.2"/>
      </g>
     </g>
    </g>
    <g id="text_11">
     <!-- $\log_{10} (\mu/GeV)$ -->
     <defs>
      <path d="
M17.9062 23.1094
C20.5938 23.1094 27.4062 23.1094 32.2031 24.9219
C39.7969 27.8594 40.5 33.7188 40.5 35.5312
C40.5 39.9688 36.7031 44 30.0938 44
C19.5938 44 4.5 34.5312 4.5 16.7656
C4.5 6.28125 10.5 -1 19.5938 -1
C33.2031 -1 41.7969 9.53125 41.7969 10.8125
C41.7969 11.4062 41.2031 11.9062 40.7969 11.9062
C40.5 11.9062 40.4062 11.8125 39.5 10.9219
C33.0938 2.48438 23.5938 1 19.7969 1
C14.0938 1 11.0938 5.46875 11.0938 12.8438
C11.0938 14.2344 11.0938 16.7344 12.5938 23.1094
z

M13.0938 25
C17.4062 40.5 26.9062 42.0156 30.0938 42.0156
C34.5 42.0156 37.5 39.4062 37.5 35.5781
C37.5 25 21.5 25 17.2969 25
z
" id="CMMI12-101"/>
      <path d="
M61.9062 56.7188
C65.2969 62.1094 68.4062 64.5 73.5 64.9062
C74.5 65 75.2969 65 75.2969 66.7344
C75.2969 67.125 75.0938 67.7031 74.2031 67.7031
C72.4062 67.7031 68.0938 67.7031 66.2969 67.7031
C63.4062 67.7031 60.4062 67.7031 57.5938 67.7031
C56.7969 67.7031 55.7969 67.7031 55.7969 65.9375
C55.7969 65.0938 56.7031 65 57.0938 65
C60.7969 64.7031 61.2031 62.9062 61.2031 61.7031
C61.2031 60.1875 59.7969 57.8906 59.7031 57.7969
L28.2969 7.98438
L21.2969 61.8125
C21.2969 65 26.5 65 27.5938 65
C29.0938 65 30 65 30 66.7656
C30 67.7031 28.9062 67.7031 28.5938 67.7031
C26.9062 67.7031 24.9062 67.7031 23.2031 67.7031
L17.5938 67.7031
C10.2969 67.7031 7.29688 67.7031 7.20312 67.7031
C6.59375 67.7031 5.40625 67.7031 5.40625 66.0156
C5.40625 65 6.09375 65 7.70312 65
C12.7969 65 13.0938 64.0938 13.4062 61.6094
L21.4062 -0.109375
C21.7031 -2.20312 21.7031 -2.5 23.0938 -2.5
C24.2969 -2.5 24.7969 -2.20312 25.7969 -0.609375
z
" id="CMMI12-86"/>
      <path d="
M42.9062 71.2969
C42.9062 71.4062 43.5 72.9062 43.5 73.0938
C43.5 74.2969 42.5 75 41.7031 75
C41.2031 75 40.2969 75 39.5 72.7969
L6 -21.2969
C6 -21.4062 5.40625 -22.8906 5.40625 -23.0938
C5.40625 -24.2969 6.40625 -25 7.20312 -25
C7.79688 -25 8.70312 -24.8906 9.40625 -22.7969
z
" id="CMMI12-61"/>
      <path d="
M74.5938 69.1094
C74.5938 70 73.9062 70 73.7031 70
C73.5 70 73.0938 70 72.2969 69
L65.4062 60.75
C64.9062 61.5469 62.9062 65.0312 59 67.3281
C54.7031 70 50.4062 70 48.9062 70
C27.5 70 5 48.3594 5 24.9219
C5 8.53125 16.4062 -2 31.4062 -2
C38.5938 -2 47.7031 0.375 52.7031 6.64062
C53.7969 2.875 56 0.1875 56.7031 0.1875
C57.2031 0.1875 57.2969 0.5 57.4062 0.5
C57.5 0.6875 58.2969 4.17188 58.7969 5.95312
L60.4062 12.2969
C61.2031 15.5625 61.5938 16.9688 62.2969 19.9375
C63.2969 23.7031 63.5 24 69 24
C69.4062 24 70.5938 24 70.5938 25.9688
C70.5938 27 69.5938 27 69.2969 27
C67.5938 27 65.7031 27 63.9062 27
L58.5 27
C54.2969 27 49.9062 27 45.7969 27
C44.9062 27 43.7031 27 43.7031 25.0781
C43.7031 24 44.5 24 44.5 24
L47 24
C54.9062 24 54.9062 23.2031 54.9062 21.7344
C54.9062 21.625 53 11.6562 51.0938 8.70312
C47.2969 3.15625 39.4062 0.890625 33.5 0.890625
C25.7969 0.890625 13.2969 4.875 13.2969 22.0312
C13.2969 28.6875 15.7031 43.875 25.4062 55.0938
C31.7031 62.25 41 67.1094 49.7969 67.1094
C61.5938 67.1094 65.7969 57.0781 65.7969 47.9375
C65.7969 46.3594 65.4062 44.1719 65.4062 42.7812
C65.4062 41.8906 66.4062 41.8906 66.7031 41.8906
C67.7969 41.8906 67.9062 41.9844 68.2969 43.7656
z
" id="CMMI12-71"/>
      <path d="
M15.2969 68.6875
L3.40625 67.5938
L3.40625 65
C9.29688 65 10.2031 64.4062 10.2031 59.6406
L10.2031 6.65625
C10.2031 2.875 9.79688 2.39062 3.40625 2.39062
L3.40625 -0.203125
C5.79688 0 10.2031 0 12.7031 0
C15.2969 0 19.7031 0 22.0938 -0.203125
L22.0938 2.39062
C15.7031 2.39062 15.2969 2.78125 15.2969 6.65625
z
" id="CMR17-108"/>
      <path d="
M26.2969 24.6719
C26.2969 31.8438 25.5938 43.9844 19.5938 56.8281
C14.7969 67.1875 6.59375 74.4531 5.40625 74.4531
C5.09375 74.4531 4.70312 74.3438 4.70312 73.8438
C4.70312 73.6562 4.79688 73.5469 4.90625 73.3438
C9.70312 68.375 21.9062 55.7344 21.9062 24.7812
C21.9062 -6.28125 9.79688 -18.9219 4.90625 -23.9062
C4.79688 -24.0938 4.70312 -24.2031 4.70312 -24.3906
C4.70312 -24.8906 5.09375 -25 5.40625 -25
C6.5 -25 15 -17.625 19.9062 -6.67188
C24.9062 4.375 26.2969 15.125 26.2969 24.6719" id="CMR17-41"/>
      <path d="
M30.5938 -24.3906
C30.5938 -24.2969 30.5938 -24.0938 30.2969 -23.7969
C25.7031 -19.125 13.4062 -6.375 13.4062 24.6875
C13.4062 55.75 25.5 68.3906 30.4062 73.3594
C30.4062 73.4688 30.5938 73.6719 30.5938 73.9531
C30.5938 74.25 30.2969 74.4531 29.9062 74.4531
C28.7969 74.4531 20.2969 67.0781 15.4062 56.125
C10.4062 45.0781 9 34.3281 9 24.7812
C9 17.6094 9.70312 5.46875 15.7031 -7.375
C20.5 -17.7344 28.7031 -25 29.9062 -25
C30.4062 -25 30.5938 -24.7969 30.5938 -24.3906" id="CMR17-40"/>
      <path d="
M11.0938 18.1875
C13 16.6875 16.2969 15 20.2969 15
C28.2031 15 35 21.2031 35 29.5
C35 32.0938 34.2031 36.0938 31.2031 39.2031
C34 42.0625 38.0938 43 40.4062 43
C40.7969 43 41.4062 43 41.9062 42.7656
C41.5 42.6719 40.5938 42.2812 40.5938 40.7344
C40.5938 39.4844 41.5 38.6094 42.7969 38.6094
C44.2969 38.6094 45.0938 39.5781 45.0938 40.8438
C45.0938 42.6719 43.5938 44.5938 40.4062 44.5938
C36.4062 44.5938 32.9062 42.7812 30.0938 40.3125
C27.0938 43.0156 23.5 44 20.2969 44
C12.4062 44 5.59375 37.7969 5.59375 29.5
C5.59375 23.7812 8.90625 20.1875 9.90625 19.1875
C6.90625 15.6875 6.90625 11.6094 6.90625 11.1094
C6.90625 8.51562 7.90625 4.71875 11.2969 2.625
C6.09375 1.32812 2 -2.64062 2 -7.59375
C2 -14.7344 11.5 -20 22.9062 -20
C33.9062 -20 43.7969 -14.9375 43.7969 -7.48438
C43.7969 6 29 6 21.2969 6
C19 6 14.9062 6 14.4062 6.10938
C11.2969 6.60938 9.20312 9.40625 9.20312 12.8906
C9.20312 13.7812 9.20312 16 11.0938 18.1875
M20.2969 16.6875
C11.5 16.6875 11.5 27.5 11.5 29.5156
C11.5 31.5 11.5 42.3125 20.2969 42.3125
C29.0938 42.3125 29.0938 31.5 29.0938 29.5156
C29.0938 27.5 29.0938 16.6875 20.2969 16.6875
M22.9062 -18.2969
C12.9062 -18.2969 6 -13.0469 6 -7.59375
C6 -4.51562 7.70312 -1.64062 9.90625 -0.0625
C12.4062 1.625 13.4062 1.625 20.2031 1.625
C28.4062 1.625 39.7969 1.625 39.7969 -7.59375
C39.7969 -13.0469 32.9062 -18.2969 22.9062 -18.2969" id="CMR17-103"/>
      <path d="
M43.0938 21.1875
C43.0938 34 33.7969 44 22.9062 44
C12 44 2.70312 34 2.70312 21.1875
C2.70312 8.60938 12 -1 22.9062 -1
C33.7969 -1 43.0938 8.60938 43.0938 21.1875
M22.9062 0.796875
C18.2031 0.796875 14.2031 3.59375 11.9062 7.5
C9.40625 11.9844 9.09375 17.5938 9.09375 22
C9.09375 26.2031 9.29688 31.4062 11.9062 35.9062
C13.9062 39.2031 17.7969 42.4062 22.9062 42.4062
C27.4062 42.4062 31.2031 39.9062 33.5938 36.4062
C36.7031 31.7031 36.7031 25.1094 36.7031 22
C36.7031 18.0938 36.5 12.1094 33.7969 7.29688
C31 2.70312 26.7031 0.796875 22.9062 0.796875" id="CMR17-111"/>
      <path d="
M14.4062 2.20312
C16.9062 -0.09375 20.5938 -1 24 -1
C30.4062 -1 34.7969 3.29688 37.0938 6.39062
C38.0938 1.09375 42.2969 -1 45.7969 -1
C48.7969 -1 51.2031 0.796875 53 4.39062
C54.5938 7.78125 56 13.875 56 14.2656
C56 14.7656 55.5938 15.1719 55 15.1719
C54.0938 15.1719 54 14.6719 53.5938 13.1719
C52.0938 7.28125 50.2031 1 46.0938 1
C43.2031 1 43 3.59375 43 5.59375
C43 7.89062 43.9062 11.4688 44.5938 14.4688
L47.4062 25.25
C47.7969 27.1406 48.9062 31.625 49.4062 33.4219
C50 35.8281 51.0938 40.1094 51.0938 40.5156
C51.0938 42.0156 49.9062 43.0156 48.4062 43.0156
C47.5 43.0156 45.4062 42.6094 44.5938 39.6094
L37.5938 11.875
C37.0938 9.875 37.0938 9.67188 35.7969 8.07812
C34.5938 6.39062 30.7031 1 24.4062 1
C18.7969 1 17 5.09375 17 9.78125
C17 12.6719 17.9062 16.1719 18.2969 17.8594
L22.7969 35.8281
C23.2969 37.7188 24.0938 40.9062 24.0938 41.5156
C24.0938 43.1094 22.7969 44 21.5 44
C20.5938 44 18.4062 43.7031 17.5938 40.5156
L3.09375 -17.3125
C3 -17.8125 2.79688 -18.4062 2.79688 -19
C2.79688 -20.5 4 -21.5 5.5 -21.5
C8.40625 -21.5 9 -19.2031 9.70312 -16.3906
z
" id="CMMI12-22"/>
     </defs>
     <g transform="translate(248.568144908 421.409401755)scale(0.16 -0.16)">
      <use transform="translate(0.0 22.8650920863)scale(0.996264009963)" xlink:href="#CMR17-108"/>
      <use transform="translate(24.8710584819 22.8650920863)scale(0.996264009963)" xlink:href="#CMR17-111"/>
      <use transform="translate(70.5615355989 22.8650920863)scale(0.996264009963)" xlink:href="#CMR17-103"/>
      <use transform="translate(117.553178875 0.0)scale(0.697381766617)" xlink:href="#CMR17-49"/>
      <use transform="translate(149.536360839 0.0)scale(0.697381766617)" xlink:href="#CMR17-48"/>
      <use transform="translate(182.017674808 22.8650920863)scale(0.996264009963)" xlink:href="#CMR17-40"/>
      <use transform="translate(217.298442608 22.8650920863)scale(0.996264009963)" xlink:href="#CMMI12-22"/>
      <use transform="translate(275.98986406 22.8650920863)scale(0.996264009963)" xlink:href="#CMMI12-61"/>
      <use transform="translate(324.764782821 22.8650920863)scale(0.996264009963)" xlink:href="#CMMI12-71"/>
      <use transform="translate(401.711644687 22.8650920863)scale(0.996264009963)" xlink:href="#CMMI12-101"/>
      <use transform="translate(446.923645704 22.8650920863)scale(0.996264009963)" xlink:href="#CMMI12-86"/>
      <use transform="translate(525.47096642 22.8650920863)scale(0.996264009963)" xlink:href="#CMR17-41"/>
     </g>
    </g>
   </g>
   <g id="matplotlib.axis_2">
    <g id="ytick_1">
     <g id="line2d_83">
      <defs>
       <path d="
M0 0
L4 0" id="m728421d6d4" style="stroke:#000000;stroke-width:0.5;"/>
      </defs>
      <g>
       <use style="stroke:#000000;stroke-width:0.5;" x="72.0" xlink:href="#m728421d6d4" y="357.381818182"/>
      </g>
     </g>
     <g id="line2d_84">
      <defs>
       <path d="
M0 0
L-4 0" id="mcb0005524f" style="stroke:#000000;stroke-width:0.5;"/>
      </defs>
      <g>
       <use style="stroke:#000000;stroke-width:0.5;" x="518.4" xlink:href="#mcb0005524f" y="357.381818182"/>
      </g>
     </g>
     <g id="text_12">
      <!-- $0.0$ -->
      <defs>
       <path d="
M18.4062 4.79688
C18.4062 7.6875 16 9.67188 13.5938 9.67188
C10.7031 9.67188 8.70312 7.28125 8.70312 4.89062
C8.70312 2 11.0938 0 13.5 0
C16.4062 0 18.4062 2.39062 18.4062 4.79688" id="CMMI12-58"/>
      </defs>
      <g transform="translate(53.0423582464 360.367623061)scale(0.12 -0.12)">
       <use transform="scale(0.996264009963)" xlink:href="#CMR17-48"/>
       <use transform="translate(45.6904771171 0.0)scale(0.996264009963)" xlink:href="#CMMI12-58"/>
       <use transform="translate(72.7876542069 0.0)scale(0.996264009963)" xlink:href="#CMR17-48"/>
      </g>
     </g>
    </g>
    <g id="ytick_2">
     <g id="line2d_85">
      <g>
       <use style="stroke:#000000;stroke-width:0.5;" x="72.0" xlink:href="#m728421d6d4" y="294.545454545"/>
      </g>
     </g>
     <g id="line2d_86">
      <g>
       <use style="stroke:#000000;stroke-width:0.5;" x="518.4" xlink:href="#mcb0005524f" y="294.545454545"/>
      </g>
     </g>
     <g id="text_13">
      <!-- $0.2$ -->
      <g transform="translate(53.0423582464 297.531259425)scale(0.12 -0.12)">
       <use transform="scale(0.996264009963)" xlink:href="#CMR17-48"/>
       <use transform="translate(45.6904771171 0.0)scale(0.996264009963)" xlink:href="#CMMI12-58"/>
       <use transform="translate(72.7876542069 0.0)scale(0.996264009963)" xlink:href="#CMR17-50"/>
      </g>
     </g>
    </g>
    <g id="ytick_3">
     <g id="line2d_87">
      <g>
       <use style="stroke:#000000;stroke-width:0.5;" x="72.0" xlink:href="#m728421d6d4" y="231.709090909"/>
      </g>
     </g>
     <g id="line2d_88">
      <g>
       <use style="stroke:#000000;stroke-width:0.5;" x="518.4" xlink:href="#mcb0005524f" y="231.709090909"/>
      </g>
     </g>
     <g id="text_14">
      <!-- $0.4$ -->
      <g transform="translate(53.0423582464 234.694895789)scale(0.12 -0.12)">
       <use transform="scale(0.996264009963)" xlink:href="#CMR17-48"/>
       <use transform="translate(45.6904771171 0.0)scale(0.996264009963)" xlink:href="#CMMI12-58"/>
       <use transform="translate(72.7876542069 0.0)scale(0.996264009963)" xlink:href="#CMR17-52"/>
      </g>
     </g>
    </g>
    <g id="ytick_4">
     <g id="line2d_89">
      <g>
       <use style="stroke:#000000;stroke-width:0.5;" x="72.0" xlink:href="#m728421d6d4" y="168.872727273"/>
      </g>
     </g>
     <g id="line2d_90">
      <g>
       <use style="stroke:#000000;stroke-width:0.5;" x="518.4" xlink:href="#mcb0005524f" y="168.872727273"/>
      </g>
     </g>
     <g id="text_15">
      <!-- $0.6$ -->
      <g transform="translate(53.0423582464 171.858532152)scale(0.12 -0.12)">
       <use transform="scale(0.996264009963)" xlink:href="#CMR17-48"/>
       <use transform="translate(45.6904771171 0.0)scale(0.996264009963)" xlink:href="#CMMI12-58"/>
       <use transform="translate(72.7876542069 0.0)scale(0.996264009963)" xlink:href="#CMR17-54"/>
      </g>
     </g>
    </g>
    <g id="ytick_5">
     <g id="line2d_91">
      <g>
       <use style="stroke:#000000;stroke-width:0.5;" x="72.0" xlink:href="#m728421d6d4" y="106.036363636"/>
      </g>
     </g>
     <g id="line2d_92">
      <g>
       <use style="stroke:#000000;stroke-width:0.5;" x="518.4" xlink:href="#mcb0005524f" y="106.036363636"/>
      </g>
     </g>
     <g id="text_16">
      <!-- $0.8$ -->
      <g transform="translate(53.0423582464 109.022168516)scale(0.12 -0.12)">
       <use transform="scale(0.996264009963)" xlink:href="#CMR17-48"/>
       <use transform="translate(45.6904771171 0.0)scale(0.996264009963)" xlink:href="#CMMI12-58"/>
       <use transform="translate(72.7876542069 0.0)scale(0.996264009963)" xlink:href="#CMR17-56"/>
      </g>
     </g>
    </g>
    <g id="ytick_6">
     <g id="text_17">
      <!-- $1.0$ -->
      <g transform="translate(53.0423582464 46.1858048797)scale(0.12 -0.12)">
       <use transform="scale(0.996264009963)" xlink:href="#CMR17-49"/>
       <use transform="translate(45.6904771171 0.0)scale(0.996264009963)" xlink:href="#CMMI12-58"/>
       <use transform="translate(72.7876542069 0.0)scale(0.996264009963)" xlink:href="#CMR17-48"/>
      </g>
     </g>
    </g>
    <g id="ytick_7">
     <g id="line2d_93">
      <defs>
       <path d="
M0 0
L2 0" id="mf0c55a9a47" style="stroke:#000000;stroke-width:0.5;"/>
      </defs>
      <g>
       <use style="stroke:#000000;stroke-width:0.5;" x="72.0" xlink:href="#mf0c55a9a47" y="388.8"/>
      </g>
     </g>
     <g id="line2d_94">
      <defs>
       <path d="
M0 0
L-2 0" id="ma4f294b3af" style="stroke:#000000;stroke-width:0.5;"/>
      </defs>
      <g>
       <use style="stroke:#000000;stroke-width:0.5;" x="518.4" xlink:href="#ma4f294b3af" y="388.8"/>
      </g>
     </g>
    </g>
    <g id="ytick_8">
     <g id="line2d_95">
      <g>
       <use style="stroke:#000000;stroke-width:0.5;" x="72.0" xlink:href="#mf0c55a9a47" y="373.090909091"/>
      </g>
     </g>
     <g id="line2d_96">
      <g>
       <use style="stroke:#000000;stroke-width:0.5;" x="518.4" xlink:href="#ma4f294b3af" y="373.090909091"/>
      </g>
     </g>
    </g>
    <g id="ytick_9">
     <g id="line2d_97">
      <g>
       <use style="stroke:#000000;stroke-width:0.5;" x="72.0" xlink:href="#mf0c55a9a47" y="341.672727273"/>
      </g>
     </g>
     <g id="line2d_98">
      <g>
       <use style="stroke:#000000;stroke-width:0.5;" x="518.4" xlink:href="#ma4f294b3af" y="341.672727273"/>
      </g>
     </g>
    </g>
    <g id="ytick_10">
     <g id="line2d_99">
      <g>
       <use style="stroke:#000000;stroke-width:0.5;" x="72.0" xlink:href="#mf0c55a9a47" y="325.963636364"/>
      </g>
     </g>
     <g id="line2d_100">
      <g>
       <use style="stroke:#000000;stroke-width:0.5;" x="518.4" xlink:href="#ma4f294b3af" y="325.963636364"/>
      </g>
     </g>
    </g>
    <g id="ytick_11">
     <g id="line2d_101">
      <g>
       <use style="stroke:#000000;stroke-width:0.5;" x="72.0" xlink:href="#mf0c55a9a47" y="310.254545455"/>
      </g>
     </g>
     <g id="line2d_102">
      <g>
       <use style="stroke:#000000;stroke-width:0.5;" x="518.4" xlink:href="#ma4f294b3af" y="310.254545455"/>
      </g>
     </g>
    </g>
    <g id="ytick_12">
     <g id="line2d_103">
      <g>
       <use style="stroke:#000000;stroke-width:0.5;" x="72.0" xlink:href="#mf0c55a9a47" y="278.836363636"/>
      </g>
     </g>
     <g id="line2d_104">
      <g>
       <use style="stroke:#000000;stroke-width:0.5;" x="518.4" xlink:href="#ma4f294b3af" y="278.836363636"/>
      </g>
     </g>
    </g>
    <g id="ytick_13">
     <g id="line2d_105">
      <g>
       <use style="stroke:#000000;stroke-width:0.5;" x="72.0" xlink:href="#mf0c55a9a47" y="263.127272727"/>
      </g>
     </g>
     <g id="line2d_106">
      <g>
       <use style="stroke:#000000;stroke-width:0.5;" x="518.4" xlink:href="#ma4f294b3af" y="263.127272727"/>
      </g>
     </g>
    </g>
    <g id="ytick_14">
     <g id="line2d_107">
      <g>
       <use style="stroke:#000000;stroke-width:0.5;" x="72.0" xlink:href="#mf0c55a9a47" y="247.418181818"/>
      </g>
     </g>
     <g id="line2d_108">
      <g>
       <use style="stroke:#000000;stroke-width:0.5;" x="518.4" xlink:href="#ma4f294b3af" y="247.418181818"/>
      </g>
     </g>
    </g>
    <g id="ytick_15">
     <g id="line2d_109">
      <g>
       <use style="stroke:#000000;stroke-width:0.5;" x="72.0" xlink:href="#mf0c55a9a47" y="216.0"/>
      </g>
     </g>
     <g id="line2d_110">
      <g>
       <use style="stroke:#000000;stroke-width:0.5;" x="518.4" xlink:href="#ma4f294b3af" y="216.0"/>
      </g>
     </g>
    </g>
    <g id="ytick_16">
     <g id="line2d_111">
      <g>
       <use style="stroke:#000000;stroke-width:0.5;" x="72.0" xlink:href="#mf0c55a9a47" y="200.290909091"/>
      </g>
     </g>
     <g id="line2d_112">
      <g>
       <use style="stroke:#000000;stroke-width:0.5;" x="518.4" xlink:href="#ma4f294b3af" y="200.290909091"/>
      </g>
     </g>
    </g>
    <g id="ytick_17">
     <g id="line2d_113">
      <g>
       <use style="stroke:#000000;stroke-width:0.5;" x="72.0" xlink:href="#mf0c55a9a47" y="184.581818182"/>
      </g>
     </g>
     <g id="line2d_114">
      <g>
       <use style="stroke:#000000;stroke-width:0.5;" x="518.4" xlink:href="#ma4f294b3af" y="184.581818182"/>
      </g>
     </g>
    </g>
    <g id="ytick_18">
     <g id="line2d_115">
      <g>
       <use style="stroke:#000000;stroke-width:0.5;" x="72.0" xlink:href="#mf0c55a9a47" y="153.163636364"/>
      </g>
     </g>
     <g id="line2d_116">
      <g>
       <use style="stroke:#000000;stroke-width:0.5;" x="518.4" xlink:href="#ma4f294b3af" y="153.163636364"/>
      </g>
     </g>
    </g>
    <g id="ytick_19">
     <g id="line2d_117">
      <g>
       <use style="stroke:#000000;stroke-width:0.5;" x="72.0" xlink:href="#mf0c55a9a47" y="137.454545455"/>
      </g>
     </g>
     <g id="line2d_118">
      <g>
       <use style="stroke:#000000;stroke-width:0.5;" x="518.4" xlink:href="#ma4f294b3af" y="137.454545455"/>
      </g>
     </g>
    </g>
    <g id="ytick_20">
     <g id="line2d_119">
      <g>
       <use style="stroke:#000000;stroke-width:0.5;" x="72.0" xlink:href="#mf0c55a9a47" y="121.745454545"/>
      </g>
     </g>
     <g id="line2d_120">
      <g>
       <use style="stroke:#000000;stroke-width:0.5;" x="518.4" xlink:href="#ma4f294b3af" y="121.745454545"/>
      </g>
     </g>
    </g>
    <g id="ytick_21">
     <g id="line2d_121">
      <g>
       <use style="stroke:#000000;stroke-width:0.5;" x="72.0" xlink:href="#mf0c55a9a47" y="90.3272727273"/>
      </g>
     </g>
     <g id="line2d_122">
      <g>
       <use style="stroke:#000000;stroke-width:0.5;" x="518.4" xlink:href="#ma4f294b3af" y="90.3272727273"/>
      </g>
     </g>
    </g>
    <g id="ytick_22">
     <g id="line2d_123">
      <g>
       <use style="stroke:#000000;stroke-width:0.5;" x="72.0" xlink:href="#mf0c55a9a47" y="74.6181818182"/>
      </g>
     </g>
     <g id="line2d_124">
      <g>
       <use style="stroke:#000000;stroke-width:0.5;" x="518.4" xlink:href="#ma4f294b3af" y="74.6181818182"/>
      </g>
     </g>
    </g>
    <g id="text_18">
     <!-- $g_1,g_2,g_s,y_t,y_b,\lambda,\mu_0/TeV$ -->
     <defs>
      <path d="
M33.7969 12.6719
C33.4062 11.0781 33.2031 10.6719 31.9062 9.1875
C27.7969 3.89062 23.5938 2 20.5 2
C17.2031 2 14.0938 4.59375 14.0938 11.4688
C14.0938 16.7656 17.0938 27.9375 19.2969 32.4375
C22.2031 38.0156 26.7031 42.0156 30.9062 42.0156
C37.5 42.0156 38.7969 33.8281 38.7969 33.2344
L38.5 31.8281
z

M40 37.4219
C38.7031 40.3125 35.9062 44 30.9062 44
C20 44 7.59375 30.3281 7.59375 15.4688
C7.59375 5.09375 13.9062 0 20.2969 0
C25.5938 0 30.2969 4.1875 32.0938 6.1875
L29.9062 -2.67188
C28.5 -8.0625 27.9062 -10.5312 24.2969 -13.9688
C20.2031 -18 16.4062 -18 14.2031 -18
C11.2031 -18 8.70312 -17.7969 6.20312 -17.0156
C9.40625 -16.1406 10.2031 -13.4062 10.2031 -12.3281
C10.2031 -10.7656 9 -9.1875 6.79688 -9.1875
C4.40625 -9.1875 1.79688 -11.1562 1.79688 -14.4062
C1.79688 -18.4375 5.90625 -20 14.4062 -20
C27.2969 -20 34 -11.7656 35.2969 -6.40625
L46.4062 38.0469
C46.7031 39.2344 46.7031 39.4375 46.7031 39.625
C46.7031 41.0156 45.5938 42.1094 44.0938 42.1094
C41.7031 42.1094 40.2969 40.1094 40 37.4219" id="CMMI12-103"/>
      <path d="
M41.7031 61.0938
C42.2969 63.5 42.5 64.3906 44 64.7969
C44.7969 65 48.0938 65 50.2031 65
C60.2031 65 64.9062 64.5938 64.9062 56.7812
C64.9062 55.2656 64.5 51.4688 63.9062 47.75
L63.7969 46.5625
C63.7969 46.1562 64.2031 45.5625 64.7969 45.5625
C65.7969 45.5625 65.7969 46.0625 66.0938 47.6562
L69 65.375
C69.2031 66.2969 69.2031 66.5 69.2031 66.7969
C69.2031 67.8906 68.5938 67.8906 66.5938 67.8906
L11.9062 67.8906
C9.59375 67.8906 9.5 67.7969 8.90625 66
L2.79688 47.9688
C2.70312 47.75 2.40625 46.6562 2.40625 46.5625
C2.40625 46.0625 2.79688 45.5625 3.40625 45.5625
C4.20312 45.5625 4.40625 45.9531 4.79688 47.25
C9 59.3906 11.0938 65 24.4062 65
L31.0938 65
C33.5 65 34.5 65 34.5 63.9062
C34.5 63.5938 34.5 63.4062 34 61.5938
L20.5938 7.79688
C19.5938 3.89062 19.4062 2.89062 8.79688 2.89062
C6.29688 2.89062 5.59375 2.89062 5.59375 1
C5.59375 0 6.70312 0 7.20312 0
C9.70312 0 12.2969 0 14.7969 0
L30.4062 0
C32.9062 0 35.5938 0 38.0938 0
C39.2031 0 40.2031 0 40.2031 1.89062
C40.2031 2.89062 39.5 2.89062 36.9062 2.89062
C27.9062 2.89062 27.9062 3.79688 27.9062 5.29688
C27.9062 5.40625 27.9062 6.10938 28.2969 7.70312
z
" id="CMMI12-84"/>
      <path d="
M26.2969 -10.9688
C23.5938 -14.6719 19.7031 -18 14.7969 -18
C13.5938 -18 8.79688 -18 7.29688 -13.8906
C7.59375 -13.9844 8.09375 -13.9844 8.29688 -13.9844
C11.2969 -13.9844 13.2969 -11.3906 13.2969 -9.09375
C13.2969 -6.79688 11.4062 -6 9.90625 -6
C8.29688 -6 4.79688 -7.15625 4.79688 -11.8594
C4.79688 -16.7344 9.09375 -20.0938 14.7969 -20.0938
C24.7969 -20.0938 34.9062 -10.9375 37.7031 0.09375
L47.5 38.8281
C47.5938 39.3281 47.7969 39.9375 47.7969 40.5312
C47.7969 42.0156 46.5938 43.0156 45.0938 43.0156
C44.2031 43.0156 42.0938 42.6094 41.2969 39.6094
L33.9062 10.2812
C33.4062 8.48438 33.4062 8.28125 32.5938 7.1875
C30.5938 4.39062 27.2969 1 22.5 1
C16.9062 1 16.4062 6.48438 16.4062 9.1875
C16.4062 14.875 19.0938 22.5469 21.7969 29.7344
C22.9062 32.625 23.5 34.0312 23.5 36.0156
C23.5 40.2188 20.5 44 15.5938 44
C6.40625 44 2.70312 29.5312 2.70312 28.7344
C2.70312 28.3438 3.09375 27.8438 3.79688 27.8438
C4.70312 27.8438 4.79688 28.2344 5.20312 29.6406
C7.59375 38.0156 11.4062 42.0156 15.2969 42.0156
C16.2031 42.0156 17.9062 42.0156 17.9062 38.7188
C17.9062 36.125 16.7969 33.2344 15.2969 29.4375
C10.4062 16.3594 10.4062 13.0781 10.4062 10.6719
C10.4062 1.20312 17.2031 -1 22.2031 -1
C25.0938 -1 28.7031 -0.09375 32.2031 3.59375
L32.2969 3.5
C30.7969 -2.35938 29.7969 -6.17188 26.2969 -10.9688" id="CMMI12-121"/>
      <path d="
M22.7969 20
C24.5 19.7031 27.2031 19.1094 27.7969 19
C29.0938 18.625 33.5938 17.0312 33.5938 12.2344
C33.5938 9.15625 30.7969 1.09375 19.2031 1.09375
C17.0938 1.09375 9.59375 1.09375 7.59375 6.8125
C11.5938 6.3125 13.5938 9.42188 13.5938 11.6406
C13.5938 13.75 12.2031 14.8438 10.2031 14.8438
C8 14.8438 5.09375 13.1406 5.09375 8.625
C5.09375 2.70312 11.0938 -1 19.0938 -1
C34.2969 -1 38.7969 10.1719 38.7969 15.375
C38.7969 16.8594 38.7969 19.6562 35.5938 22.8438
C33.0938 25.25 30.7031 25.75 25.2969 26.8438
C22.5938 27.4375 18.2969 28.3438 18.2969 32.8281
C18.2969 34.8281 20.0938 42.0156 29.5938 42.0156
C33.7969 42.0156 37.9062 40.4531 38.9062 37
C34.5 37 34.2969 33.2031 34.2969 33.1094
C34.2969 31 36.2031 30.4062 37.0938 30.4062
C38.5 30.4062 41.2969 31.4844 41.2969 35.6406
C41.2969 39.7656 37.5 44 29.7031 44
C16.5938 44 13.0938 33.75 13.0938 29.6719
C13.0938 22.0938 20.5 20.5 22.7969 20" id="CMMI12-115"/>
      <path d="
M20.0938 40.0938
L29.2969 40.0938
C31.2031 40.0938 32.2031 40.0938 32.2031 41.8906
C32.2031 43 31.5938 43 29.5938 43
L20.7969 43
L24.5 57.6875
C24.9062 59.0781 24.9062 59.2812 24.9062 60
C24.9062 61.6094 23.5938 62.5 22.2969 62.5
C21.5 62.5 19.2031 62.2031 18.4062 58.9844
L14.5 43
L5.09375 43
C3.09375 43 2.20312 43 2.20312 41.0938
C2.20312 40.0938 2.90625 40.0938 4.79688 40.0938
L13.7031 40.0938
L7.09375 13.7656
C6.29688 10.2812 6 9.28125 6 7.98438
C6 3.29688 9.29688 -1 14.9062 -1
C25 -1 30.4062 13.5781 30.4062 14.2656
C30.4062 14.875 30 15.1719 29.4062 15.1719
C29.2031 15.1719 28.7969 15.1719 28.5938 14.7656
C28.5 14.6719 28.4062 14.5625 27.7031 12.9688
C25.5938 7.98438 21 1 15.2031 1
C12.2031 1 12 3.5 12 5.6875
C12 5.78125 12 7.6875 12.2969 8.875
z
" id="CMMI12-116"/>
      <path d="
M23.0938 66.5156
C23.2031 66.9219 23.4062 67.5156 23.4062 68.0156
C23.4062 69 22.4062 69 22.2031 69
C22.0938 69 18.5 68.6406 16.7031 68.3906
C15 68.3906 13.5 68.0938 11.7031 68.0938
C9.29688 67.8906 8.59375 67.7969 8.59375 66
C8.59375 65 9.59375 65 10.5938 65
C15.7031 65 15.7031 64.0938 15.7031 63.0938
C15.7031 62.4219 14.9062 59.5156 14.5 57.7344
L12.0938 48.1875
C11.0938 44.2188 5.40625 21.6562 5 19.875
C4.5 17.3906 4.5 15.7031 4.5 14.4062
C4.5 4.28125 10.2031 -1 16.7031 -1
C28.2969 -1 40.2969 13.875 40.2969 28.3438
C40.2969 37.5156 35.0938 44 27.5938 44
C22.4062 44 17.7031 39.7188 15.7969 37.7188
z

M16.7969 1
C13.5938 1 10.0938 3.39062 10.0938 11.1719
C10.0938 14.4688 10.4062 16.3594 12.2031 23.3438
C12.5 24.6406 14.0938 31.0312 14.5 32.3281
C14.7031 33.125 20.5938 42.0156 27.4062 42.0156
C31.7969 42.0156 33.7969 37.625 33.7969 32.4375
C33.7969 27.6406 31 16.3594 28.5 11.1719
C26 5.78125 21.4062 1 16.7969 1" id="CMMI12-98"/>
      <path d="
M30.9062 61.9531
C28.4062 69 20.5 69 19.2031 69
C18.5938 69 17.5 69 17.5 68
C17.5 67.2188 18.0938 67.125 18.5938 67.0156
C20.0938 66.8281 21.2969 66.625 22.9062 63.75
C23.9062 61.8438 34.2031 32.1719 34.2031 31.9688
C34.2031 31.875 34.0938 31.7656 33.2969 30.9688
L7.29688 4.85938
C6.09375 3.67188 5.29688 2.875 5.29688 1.57812
C5.29688 0.1875 6.5 -1 8.09375 -1
C8.5 -1 9.59375 -0.796875 10.2031 -0.203125
C11.7969 1.28125 26.0938 18.6562 35.2031 29.3906
C37.7969 21.625 41 12.4531 44.0938 4.07812
C44.5938 2.59375 45.0938 1.20312 46.5 -0.09375
C47.5 -1 47.7031 -1 50.5 -1
L52.4062 -1
C52.7969 -1 53.5 -1 53.5 -0.203125
C53.5 0.203125 53.4062 0.296875 53 0.703125
C52.0938 1.78125 51.4062 3.57812 51 4.78125
z
" id="CMMI12-21"/>
      <path d="
M19.5 -0.484375
C19.5 5.35938 17.5938 9.67188 13.5 9.67188
C10.2969 9.67188 8.70312 7.07812 8.70312 4.89062
C8.70312 2.6875 10.2031 0 13.5938 0
C14.9062 0 16 0.40625 16.9062 1.29688
C17.0938 1.5 17.2031 1.5 17.2969 1.5
C17.5 1.5 17.5 0.078125 17.5 -0.421875
C17.5 -3.75 16.9062 -10.2969 11.0938 -16.875
C10 -18.0781 10 -18.2812 10 -18.4844
C10 -19 10.5 -19.5 11 -19.5
C11.7969 -19.5 19.5 -12.0469 19.5 -0.484375" id="CMMI12-59"/>
     </defs>
     <g transform="translate(44.6471769682 299.658844032)rotate(-90.0)scale(0.16 -0.16)">
      <use transform="translate(0.0 14.9439145441)scale(0.996264009963)" xlink:href="#CMMI12-103"/>
      <use transform="translate(46.7108967592 0.0)scale(0.697381766617)" xlink:href="#CMR17-49"/>
      <use transform="translate(79.1922107283 14.9439145441)scale(0.996264009963)" xlink:href="#CMMI12-59"/>
      <use transform="translate(122.893793051 14.9439145441)scale(0.996264009963)" xlink:href="#CMMI12-103"/>
      <use transform="translate(169.604689811 0.0)scale(0.697381766617)" xlink:href="#CMR17-50"/>
      <use transform="translate(202.08600378 14.9439145441)scale(0.996264009963)" xlink:href="#CMMI12-59"/>
      <use transform="translate(245.787586103 14.9439145441)scale(0.996264009963)" xlink:href="#CMMI12-103"/>
      <use transform="translate(292.498482862 0.0)scale(0.697381766617)" xlink:href="#CMMI12-115"/>
      <use transform="translate(325.161503736 14.9439145441)scale(0.996264009963)" xlink:href="#CMMI12-59"/>
      <use transform="translate(368.863086059 14.9439145441)scale(0.996264009963)" xlink:href="#CMMI12-121"/>
      <use transform="translate(416.427274065 0.0)scale(0.697381766617)" xlink:href="#CMMI12-116"/>
      <use transform="translate(441.583715607 14.9439145441)scale(0.996264009963)" xlink:href="#CMMI12-59"/>
      <use transform="translate(485.285297931 14.9439145441)scale(0.996264009963)" xlink:href="#CMMI12-121"/>
      <use transform="translate(532.849485937 0.0)scale(0.697381766617)" xlink:href="#CMMI12-98"/>
      <use transform="translate(562.380605201 14.9439145441)scale(0.996264009963)" xlink:href="#CMMI12-59"/>
      <use transform="translate(606.082187524 14.9439145441)scale(0.996264009963)" xlink:href="#CMMI12-21"/>
      <use transform="translate(662.986259413 14.9439145441)scale(0.996264009963)" xlink:href="#CMMI12-59"/>
      <use transform="translate(706.687841736 14.9439145441)scale(0.996264009963)" xlink:href="#CMMI12-22"/>
      <use transform="translate(765.379263188 0.0)scale(0.697381766617)" xlink:href="#CMR17-48"/>
      <use transform="translate(797.860577157 14.9439145441)scale(0.996264009963)" xlink:href="#CMMI12-61"/>
      <use transform="translate(846.635495919 14.9439145441)scale(0.996264009963)" xlink:href="#CMMI12-84"/>
      <use transform="translate(917.359128123 14.9439145441)scale(0.996264009963)" xlink:href="#CMMI12-101"/>
      <use transform="translate(962.57112914 14.9439145441)scale(0.996264009963)" xlink:href="#CMMI12-86"/>
     </g>
    </g>
   </g>
   <g id="patch_4">
    <path d="
M72 43.2
L518.4 43.2" style="fill:none;stroke:#000000;"/>
   </g>
   <g id="patch_5">
    <path d="
M518.4 388.8
L518.4 43.2" style="fill:none;stroke:#000000;"/>
   </g>
   <g id="patch_6">
    <path d="
M72 388.8
L518.4 388.8" style="fill:none;stroke:#000000;"/>
   </g>
   <g id="patch_7">
    <path d="
M72 388.8
L72 43.2" style="fill:none;stroke:#000000;"/>
   </g>
   <g id="text_19">
    <!-- $M_{pl}$ -->
    <defs>
     <path d="
M25.4062 66.5156
C25.5 66.9062 25.7031 67.5 25.7031 68
C25.7031 69 24.7031 69 24.5 69
C24.4062 69 20.7969 68.6406 19 68.3906
C17.2969 68.3906 15.7969 68.0938 14 68.0938
C11.5938 67.8906 10.9062 67.7969 10.9062 66
C10.9062 65 11.9062 65 12.9062 65
C18 65 18 64.0938 18 63.0938
C18 62.7188 18 62.5156 17.5 60.7188
L5.09375 11.4219
C4.79688 10.3281 4.59375 9.53125 4.59375 7.95312
C4.59375 2.98438 8.29688 -1 13.4062 -1
C16.7031 -1 18.9062 1.1875 20.5 4.28125
C22.2031 7.54688 23.5938 13.8125 23.5938 14.2031
C23.5938 14.7031 23.2031 15.1094 22.5938 15.1094
C21.7031 15.1094 21.5938 14.6094 21.2031 13.125
C19.4062 6.26562 17.5938 1 13.5938 1
C10.5938 1 10.5938 4.17188 10.5938 5.57812
C10.5938 5.96875 10.5938 8.04688 11.2969 10.8438
z
" id="CMMI12-108"/>
     <path d="
M90.7969 60.7344
C91.7031 64.1094 91.9062 65.1094 99 65.1094
C100.906 65.1094 101.797 65.1094 101.797 67
C101.797 68 101.094 68 99.2031 68
L87.2031 68
C84.7031 68 84.5938 67.9062 83.5 66.2969
L47 8.78125
L39.5 65.7969
C39.2031 68 39.0938 68 36.5 68
L24.0938 68
C22.2031 68 21.2969 68 21.2969 66.1094
C21.2969 65.1094 22.2031 65.1094 23.7031 65.1094
C29.7969 65.1094 29.7969 64.3125 29.7969 63.2031
C29.7969 63.0156 29.7969 62.4062 29.4062 60.8906
L16.5938 9.90625
C15.4062 5.10938 13.0938 2.90625 6.40625 2.90625
C6.09375 2.90625 4.90625 2.8125 4.90625 1.09375
C4.90625 0 5.79688 0 6.20312 0
C8.20312 0 13.2969 0 15.2969 0
L20.0938 0
C21.5 0 23.2031 0 24.5938 0
C25.2969 0 26.4062 0 26.4062 1.90625
C26.4062 2.8125 25.4062 2.90625 25 2.90625
C21.7031 2.90625 18.5 3.5 18.5 7.09375
C18.5 8.09375 18.5 8.1875 18.9062 9.57812
L32.7031 64.5
L32.7969 64.5
L41.0938 2.6875
C41.4062 0.296875 41.5 0 42.4062 0
C43.5 0 44 0.796875 44.5 1.70312
L84.7031 65.1094
L84.7969 65.1094
L70.2969 7.40625
C69.4062 3.90625 69.2031 2.90625 62.2031 2.90625
C60.2969 2.90625 59.2969 2.90625 59.2969 1.09375
C59.2969 0 60.2031 0 60.7969 0
C62.5 0 64.5 0 66.2031 0
L78 0
C79.7031 0 81.7969 0 83.5 0
C84.2969 0 85.4062 0 85.4062 1.90625
C85.4062 2.90625 84.5 2.90625 83 2.90625
C76.9062 2.90625 76.9062 3.70312 76.9062 4.70312
C76.9062 4.8125 76.9062 5.5 77.0938 6.28125
z
" id="CMMI12-77"/>
     <path d="
M4.29688 -12.3281
C3.59375 -15.3125 3.20312 -16.1094 -0.90625 -16.1094
C-2.09375 -16.1094 -3.09375 -16.1094 -3.09375 -18
C-3.09375 -18.2031 -3 -19 -1.90625 -19
C-0.59375 -19 0.796875 -19 2.09375 -19
L6.40625 -19
C8.5 -19 13.5938 -19 15.7031 -19
C16.2969 -19 17.5 -19 17.5 -17.2031
C17.5 -16.1094 16.7969 -16.1094 15.0938 -16.1094
C10.5 -16.1094 10.2031 -15.4219 10.2031 -14.6406
C10.2031 -13.4531 14.7031 3.42188 15.2969 5.6875
C16.4062 2.89062 19.0938 -1 24.2969 -1
C35.5938 -1 47.7969 13.6719 47.7969 28.3438
C47.7969 37.5156 42.5938 44 35.0938 44
C28.7031 44 23.2969 37.8125 22.2031 36.4219
C21.4062 41.4062 17.5 44 13.5 44
C10.5938 44 8.29688 42.6094 6.40625 38.8125
C4.59375 35.2188 3.20312 29.1406 3.20312 28.7344
C3.20312 28.3438 3.59375 27.8438 4.29688 27.8438
C5.09375 27.8438 5.20312 27.9375 5.79688 30.2344
C7.29688 36.125 9.20312 42.0156 13.2031 42.0156
C15.5 42.0156 16.2969 40.4219 16.2969 37.4531
C16.2969 35.0781 16 34.0781 15.5938 32.2969
z

M21.5938 31.1406
C22.2969 33.9219 25.0938 36.8281 26.7031 38.2188
C27.7969 39.2188 31.0938 42.0156 34.9062 42.0156
C39.2969 42.0156 41.2969 37.625 41.2969 32.4375
C41.2969 27.6406 38.5 16.3594 36 11.1719
C33.5 5.78125 28.9062 1 24.2969 1
C17.5 1 16.4062 9.57812 16.4062 9.98438
C16.4062 10.2812 16.5938 11.0781 16.7031 11.5781
z
" id="CMMI12-112"/>
    </defs>
    <g transform="translate(485.829930975 407.650909091)scale(0.12 -0.12)">
     <use transform="translate(0.0 14.9439145441)scale(0.996264009963)" xlink:href="#CMMI12-77"/>
     <use transform="translate(94.3734250953 0.0)scale(0.697381766617)" xlink:href="#CMMI12-112"/>
     <use transform="translate(128.644931361 0.0)scale(0.697381766617)" xlink:href="#CMMI12-108"/>
    </g>
   </g>
   <g id="legend_1">
    <g id="line2d_125">
     <path d="
M240.857 63.3573
L311.257 63.3573" style="fill:none;stroke:#0072bd;stroke-dasharray:5.000000,5.000000;stroke-dashoffset:0.0;stroke-width:2;"/>
    </g>
    <g id="line2d_126"/>
    <g id="text_20">
     <!-- $g_1$ -->
     <g transform="translate(328.857490417 68.9573124222)scale(0.16 -0.16)">
      <use transform="translate(0.0 14.9439145441)scale(0.996264009963)" xlink:href="#CMMI12-103"/>
      <use transform="translate(46.7108967592 0.0)scale(0.697381766617)" xlink:href="#CMR17-49"/>
     </g>
    </g>
    <g id="line2d_127">
     <path d="
M240.857 86.1098
L311.257 86.1098" style="fill:none;stroke:#d95319;stroke-dasharray:8.000000,4.000000,2.000000,4.000000,2.000000,4.000000;stroke-dashoffset:0.0;stroke-width:2;"/>
    </g>
    <g id="line2d_128"/>
    <g id="text_21">
     <!-- $g_2$ -->
     <g transform="translate(328.857490417 91.7098061225)scale(0.16 -0.16)">
      <use transform="translate(0.0 14.9439145441)scale(0.996264009963)" xlink:href="#CMMI12-103"/>
      <use transform="translate(46.7108967592 0.0)scale(0.697381766617)" xlink:href="#CMR17-50"/>
     </g>
    </g>
    <g id="line2d_129">
     <path d="
M240.857 108.862
L311.257 108.862" style="fill:none;stroke:#edb120;stroke-dasharray:10.000000,5.000000,100.000000,5.000000;stroke-dashoffset:0.0;stroke-width:2;"/>
    </g>
    <g id="line2d_130"/>
    <g id="text_22">
     <!-- $g_s$ -->
     <g transform="translate(328.857490417 114.462299823)scale(0.16 -0.16)">
      <use transform="translate(0.0 14.9439145441)scale(0.996264009963)" xlink:href="#CMMI12-103"/>
      <use transform="translate(46.7108967592 0.0)scale(0.697381766617)" xlink:href="#CMMI12-115"/>
     </g>
    </g>
    <g id="line2d_131">
     <path d="
M240.857 131.615
L311.257 131.615" style="fill:none;stroke:#7e2f8e;stroke-dasharray:10.000000,5.000000,10.000000,5.000000,100.000000,5.000000;stroke-dashoffset:0.0;stroke-width:2;"/>
    </g>
    <g id="line2d_132"/>
    <g id="text_23">
     <!-- $y_t$ -->
     <g transform="translate(328.857490417 137.214793523)scale(0.16 -0.16)">
      <use transform="translate(0.0 14.9439145441)scale(0.996264009963)" xlink:href="#CMMI12-121"/>
      <use transform="translate(47.5641880059 0.0)scale(0.697381766617)" xlink:href="#CMMI12-116"/>
     </g>
    </g>
    <g id="line2d_133">
     <path d="
M378.71 63.3573
L449.11 63.3573" style="fill:none;stroke:#77ac30;stroke-dasharray:10.000000,5.000000,10.000000,5.000000,10.000000,5.000000,100.000000,5.000000;stroke-dashoffset:0.0;stroke-width:2;"/>
    </g>
    <g id="line2d_134"/>
    <g id="text_24">
     <!-- $y_b$ -->
     <g transform="translate(466.710303233 68.9573124222)scale(0.16 -0.16)">
      <use transform="translate(0.0 14.9439145441)scale(0.996264009963)" xlink:href="#CMMI12-121"/>
      <use transform="translate(47.5641880059 0.0)scale(0.697381766617)" xlink:href="#CMMI12-98"/>
     </g>
    </g>
    <g id="line2d_135">
     <path d="
M378.71 86.1098
L449.11 86.1098" style="fill:none;stroke:#4dbeee;stroke-linecap:square;stroke-width:2;"/>
    </g>
    <g id="line2d_136"/>
    <g id="text_25">
     <!-- $\lambda$ -->
     <g transform="translate(466.710303233 91.7098061225)scale(0.16 -0.16)">
      <use transform="scale(0.996264009963)" xlink:href="#CMMI12-21"/>
     </g>
    </g>
    <g id="line2d_137">
     <path d="
M378.71 108.862
L449.11 108.862" style="fill:none;stroke:#a2142f;stroke-dasharray:8.000000,4.000000,2.000000,4.000000;stroke-dashoffset:0.0;stroke-width:2;"/>
    </g>
    <g id="line2d_138"/>
    <g id="text_26">
     <!-- $\mu_0$ -->
     <g transform="translate(466.710303233 114.462299823)scale(0.16 -0.16)">
      <use transform="translate(0.0 14.9439145441)scale(0.996264009963)" xlink:href="#CMMI12-22"/>
      <use transform="translate(58.6914214518 0.0)scale(0.697381766617)" xlink:href="#CMR17-48"/>
     </g>
    </g>
   </g>
  </g>
 </g>
 <defs>
  <clipPath id="p7ff5b81e1d">
   <rect height="345.6" width="446.4" x="72.0" y="43.2"/>
  </clipPath>
 </defs>
</svg>
