<?xml version="1.0" encoding="utf-8" standalone="no"?>
<!DOCTYPE svg PUBLIC "-//W3C//DTD SVG 1.1//EN"
  "http://www.w3.org/Graphics/SVG/1.1/DTD/svg11.dtd">
<!-- Created with matplotlib (http://matplotlib.org/) -->
<svg height="432pt" version="1.1" viewBox="0 0 576 432" width="576pt" xmlns="http://www.w3.org/2000/svg" xmlns:xlink="http://www.w3.org/1999/xlink">
 <defs>
  <style type="text/css">
*{stroke-linecap:butt;stroke-linejoin:round;}
  </style>
 </defs>
 <g id="figure_1">
  <g id="patch_1">
   <path d="
M0 432
L576 432
L576 0
L0 0
z
" style="fill:#ffffff;"/>
  </g>
  <g id="axes_1">
   <g id="patch_2">
    <path d="
M72 388.8
L518.4 388.8
L518.4 43.2
L72 43.2
z
" style="fill:#ffffff;"/>
   </g>
   <g id="PolyCollection_1">
    <defs>
     <path d="
M72 -121.075
L72 -131.743
L116.64 -154.714
L161.28 -177.592
L205.92 -200.356
L250.56 -223.05
L295.2 -245.629
L339.84 -268.163
L384.48 -290.604
L429.12 -312.998
L473.76 -335.324
L518.4 -357.627
L518.4 -346.314
L518.4 -346.314
L473.76 -324.081
L429.12 -301.801
L384.48 -279.475
L339.84 -257.08
L295.2 -234.616
L250.56 -212.106
L205.92 -189.481
L161.28 -166.787
L116.64 -143.977
L72 -121.075
z
" id="C0_0_a14cfa6da9"/>
    </defs>
    <g clip-path="url(#p7ff5b81e1d)">
     <use style="fill:#ff9848;fill-opacity:0.5;stroke:#cc4f1b;stroke-opacity:0.5;" x="0.0" xlink:href="#C0_0_a14cfa6da9" y="432.0"/>
    </g>
   </g>
   <g id="PolyCollection_2">
    <defs>
     <path d="
M72 3758.4
L72 -126.42
L116.64 -149.345
L161.28 -172.201
L205.92 -194.918
L250.56 -217.567
L295.2 -240.146
L339.84 -262.633
L384.48 -285.051
L429.12 -307.4
L473.76 -329.702
L518.4 -351.982
L518.4 3758.4
L518.4 3758.4
L473.76 3758.4
L429.12 3758.4
L384.48 3758.4
L339.84 3758.4
L295.2 3758.4
L250.56 3758.4
L205.92 3758.4
L161.28 3758.4
L116.64 3758.4
L72 3758.4
z
" id="C1_0_2d1a0b7d73"/>
    </defs>
    <g clip-path="url(#p7ff5b81e1d)">
     <use style="fill:#8fb032;fill-opacity:0.1;stroke:#8fb032;stroke-opacity:0.1;" x="0.0" xlink:href="#C1_0_2d1a0b7d73" y="432.0"/>
    </g>
   </g>
   <g id="PolyCollection_3">
    <defs>
     <path d="
M67.5298 -388.8
L67.5298 -306.716
L85.7188 -313.17
L109.919 -321.661
L158.32 -338.814
L200.71 -353.929
L226.606 -362.93
L255.585 -373.289
L279.94 -381.78
L297.204 -388.064
L297.204 -388.8
L297.204 -388.8
L279.94 -388.8
L255.585 -388.8
L226.606 -388.8
L200.71 -388.8
L158.32 -388.8
L109.919 -388.8
L85.7188 -388.8
L67.5298 -388.8
z
" id="C2_0_9c8b3208c8"/>
    </defs>
    <g clip-path="url(#p7ff5b81e1d)">
     <use style="fill:#eb6235;fill-opacity:0.1;stroke:#eb6235;stroke-opacity:0.1;" x="0.0" xlink:href="#C2_0_9c8b3208c8" y="432.0"/>
    </g>
   </g>
   <g id="patch_3">
    <path clip-path="url(#p7ff5b81e1d)" d="
M199.224 219.783
C201.592 219.783 203.863 217.661 205.537 213.884
C207.211 210.107 208.152 204.983 208.152 199.642
C208.152 194.3 207.211 189.177 205.537 185.4
C203.863 181.623 201.592 179.5 199.224 179.5
C196.856 179.5 194.585 181.623 192.911 185.4
C191.237 189.177 190.296 194.3 190.296 199.642
C190.296 204.983 191.237 210.107 192.911 213.884
C194.585 217.661 196.856 219.783 199.224 219.783
z
" style="fill:none;stroke:#8778b3;"/>
   </g>
   <g id="patch_4">
    <path clip-path="url(#p7ff5b81e1d)" d="
M199.224 239.924
C203.959 239.924 208.502 235.68 211.85 228.126
C215.199 220.572 217.08 210.325 217.08 199.642
C217.08 188.959 215.199 178.712 211.85 171.158
C208.502 163.604 203.959 159.359 199.224 159.359
C194.489 159.359 189.946 163.604 186.598 171.158
C183.249 178.712 181.368 188.959 181.368 199.642
C181.368 210.325 183.249 220.572 186.598 228.126
C189.946 235.68 194.489 239.924 199.224 239.924
z
" style="fill:none;stroke:#c56e1a;"/>
   </g>
   <g id="patch_5">
    <path clip-path="url(#p7ff5b81e1d)" d="
M199.224 260.065
C206.327 260.065 213.14 253.699 218.163 242.368
C223.186 231.037 226.008 215.666 226.008 199.642
C226.008 183.617 223.186 168.247 218.163 156.916
C213.14 145.585 206.327 139.218 199.224 139.218
C192.121 139.218 185.308 145.585 180.285 156.916
C175.262 168.247 172.44 183.617 172.44 199.642
C172.44 215.666 175.262 231.037 180.285 242.368
C185.308 253.699 192.121 260.065 199.224 260.065
z
" style="fill:none;stroke:#5d9ec7;"/>
   </g>
   <g id="line2d_1">
    <path clip-path="url(#p7ff5b81e1d)" d="
M257.234 43.2
L247.033 54.72
L237.079 66.24
L227.347 77.76
L217.884 89.28
L208.665 100.8
L199.737 112.32
L191.122 123.84
L182.796 135.36
L174.806 146.88
L167.15 158.4
L159.874 169.92
L152.999 181.44
L146.526 192.96
L140.545 204.48
L135.032 216
L130.099 227.52
L125.769 239.04
L122.153 250.56
L119.363 262.08
L117.51 273.6
L116.819 285.12
L117.622 296.64
L120.412 308.16
L126.171 319.68
L127.8 321.938
L137.241 331.2
L138.96 332.421
L150.12 338.365
L161.28 341.891
L172.44 343.872
L183.6 344.748
L194.76 344.748
L205.92 344.056
L217.08 342.789
L228.24 341.038
L239.4 338.872
L250.56 336.361
L261.72 333.504
L272.88 330.371
L284.04 326.984
L295.2 323.366
L306.36 319.542
L317.52 315.51
L328.68 311.293
L339.84 306.939
L351 302.423
L362.16 297.746
L373.32 292.954
L384.48 288.046
L395.64 283.023
L406.8 277.885
L417.96 272.655
L429.12 267.333
L440.28 261.896
L451.44 256.389
L462.6 250.813
L473.76 245.169
L484.92 239.432
L496.08 233.626
L507.24 227.773
L518.4 221.852" style="fill:none;stroke:#5e81b5;stroke-linecap:square;stroke-width:1.5;"/>
   </g>
   <g id="line2d_2">
    <path clip-path="url(#p7ff5b81e1d)" d="
M257.993 43.2
L247.658 54.72
L237.57 66.24
L227.704 77.76
L218.107 89.28
L208.755 100.8
L199.67 112.32
L190.876 123.84
L182.372 135.36
L174.203 146.88
L166.347 158.4
L158.869 169.92
L151.749 181.44
L145.031 192.96
L138.759 204.48
L132.956 216
L127.688 227.52
L122.979 239.04
L118.917 250.56
L115.569 262.08
L113.091 273.6
L111.64 285.12
L111.417 296.64
L112.823 308.16
L116.439 319.68
L116.64 320.141
L123.492 331.2
L127.8 335.762
L138.96 343.642
L150.12 348.319
L161.28 351.084
L172.44 352.535
L183.6 352.973
L194.76 352.673
L205.92 351.729
L217.08 350.254
L228.24 348.319
L239.4 346.015
L250.56 343.365
L261.72 340.393
L272.88 337.167
L284.04 333.688
L295.2 329.979
L306.36 326.085
L317.52 321.984
L328.68 317.722
L339.84 313.298
L351 308.736
L362.16 304.013
L373.32 299.174
L384.48 294.221
L395.64 289.175
L406.8 283.991
L417.96 278.715
L429.12 273.37
L440.28 267.909
L451.44 262.38
L462.6 256.781
L473.76 251.09
L484.92 245.353
L496.08 239.524
L507.24 233.649
L518.4 227.727" style="fill:none;stroke:#5e81b5;stroke-dasharray:6.000000,6.000000;stroke-dashoffset:0.0;"/>
   </g>
   <g id="line2d_3">
    <path clip-path="url(#p7ff5b81e1d)" d="
M256.542 43.2
L246.453 54.72
L236.61 66.24
L227.035 77.76
L217.705 89.28
L208.643 100.8
L199.894 112.32
L191.434 123.84
L183.288 135.36
L175.498 146.88
L168.043 158.4
L160.99 169.92
L154.361 181.44
L148.156 192.96
L142.464 204.48
L137.286 216
L132.733 227.52
L128.827 239.04
L125.702 250.56
L123.492 262.08
L122.354 273.6
L122.599 285.12
L124.653 296.64
L129.318 308.16
L138.96 320.302
L150.12 327.928
L161.28 332.421
L172.44 335.048
L183.6 336.361
L194.76 336.707
L205.92 336.292
L217.08 335.255
L228.24 333.688
L239.4 331.684
L250.56 329.311
L261.72 326.592
L272.88 323.551
L284.04 320.256
L295.2 316.731
L306.36 312.975
L317.52 309.012
L328.68 304.888
L339.84 300.557
L351 296.11
L362.16 291.479
L373.32 286.733
L384.48 281.871
L395.64 276.872
L406.8 271.78
L417.96 266.573
L429.12 261.274
L440.28 255.882
L451.44 250.422
L462.6 244.846
L473.76 239.224
L484.92 233.51
L496.08 227.75
L507.24 221.898
L518.4 216" style="fill:none;stroke:#5e81b5;stroke-dasharray:3.000000,5.000000,1.000000,5.000000;stroke-dashoffset:0.0;"/>
   </g>
   <g id="line2d_4">
    <path clip-path="url(#p7ff5b81e1d)" d="
M342.876 43.2
L332.541 54.72
L322.475 66.24
L312.699 77.76
L303.258 89.28
L294.106 100.8
L285.312 112.32
L276.898 123.84
L268.885 135.36
L261.296 146.88
L254.198 158.4
L247.614 169.92
L241.61 181.44
L236.275 192.96
L231.722 204.48
L228.039 216
L225.495 227.52
L224.356 239.04
L225.115 250.56
L228.731 262.08
L237.614 273.6
L239.4 275.052
L250.56 281.203
L261.72 284.383
L272.88 285.834
L284.04 286.088
L295.2 285.489
L306.36 284.221
L317.52 282.401
L328.68 280.12
L339.84 277.471
L351 274.452
L362.16 271.158
L373.32 267.61
L384.48 263.808
L395.64 259.822
L406.8 255.629
L417.96 251.251
L429.12 246.735
L440.28 242.081
L451.44 237.266
L462.6 232.335
L473.76 227.313
L484.92 222.152
L496.08 216.899
L507.24 211.553
L518.4 206.139" style="fill:none;stroke:#e19c24;stroke-linecap:square;stroke-width:1.5;"/>
   </g>
   <g id="line2d_5">
    <path clip-path="url(#p7ff5b81e1d)" d="
M344.058 43.2
L333.568 54.72
L323.346 66.24
L313.413 77.76
L303.771 89.28
L294.441 100.8
L285.446 112.32
L276.786 123.84
L268.528 135.36
L260.693 146.88
L253.283 158.4
L246.364 169.92
L240.003 181.44
L234.222 192.96
L229.155 204.48
L224.892 216
L221.589 227.52
L219.468 239.04
L218.866 250.56
L220.406 262.08
L225.249 273.6
L236.811 285.12
L239.4 286.664
L250.56 291.18
L261.72 293.46
L272.88 294.313
L284.04 294.175
L295.2 293.276
L306.36 291.756
L317.52 289.728
L328.68 287.286
L339.84 284.475
L351 281.341
L362.16 277.932
L373.32 274.291
L384.48 270.42
L395.64 266.342
L406.8 262.08
L417.96 257.656
L429.12 253.071
L440.28 248.348
L451.44 243.51
L462.6 238.533
L473.76 233.464
L484.92 228.28
L496.08 223.004
L507.24 217.613
L518.4 212.152" style="fill:none;stroke:#e19c24;stroke-dasharray:6.000000,6.000000;stroke-dashoffset:0.0;"/>
   </g>
   <g id="line2d_6">
    <path clip-path="url(#p7ff5b81e1d)" d="
M341.76 43.2
L331.582 54.72
L321.694 66.24
L312.096 77.76
L302.811 89.28
L293.883 100.8
L285.312 112.32
L277.143 123.84
L269.376 135.36
L262.077 146.88
L255.292 158.4
L249.065 169.92
L243.485 181.44
L238.619 192.96
L234.624 204.48
L231.655 216
L230.003 227.52
L230.07 239.04
L232.637 250.56
L239.489 262.08
L250.56 270.651
L261.72 274.982
L272.88 277.125
L284.04 277.862
L295.2 277.632
L306.36 276.618
L317.52 275.028
L328.68 272.932
L339.84 270.42
L351 267.54
L362.16 264.361
L373.32 260.905
L384.48 257.196
L395.64 253.279
L406.8 249.155
L417.96 244.846
L429.12 240.399
L440.28 235.768
L451.44 231.022
L462.6 226.138
L473.76 221.138
L484.92 216.023
L496.08 210.816
L507.24 205.494
L518.4 200.102" style="fill:none;stroke:#e19c24;stroke-dasharray:3.000000,5.000000,1.000000,5.000000;stroke-dashoffset:0.0;"/>
   </g>
   <g id="line2d_7">
    <path clip-path="url(#p7ff5b81e1d)" d="
M423.674 43.2
L413.518 54.72
L403.698 66.24
L394.256 77.76
L385.239 89.28
L376.69 100.8
L368.61 112.32
L361.111 123.84
L354.236 135.36
L348.121 146.88
L342.876 158.4
L338.702 169.92
L335.956 181.44
L335.13 192.96
L337.34 204.48
L339.84 209.503
L345.599 216
L351 219.548
L362.16 223.534
L373.32 225.078
L384.48 225.216
L395.64 224.34
L406.8 222.774
L417.96 220.631
L429.12 218.004
L440.28 215.032
L451.44 211.715
L462.6 208.097
L473.76 204.25
L484.92 200.195
L496.08 195.932
L507.24 191.485
L518.4 186.877" style="fill:none;stroke:#c56e1a;stroke-linecap:square;stroke-width:1.5;"/>
   </g>
   <g id="line2d_8">
    <path clip-path="url(#p7ff5b81e1d)" d="
M425.058 43.2
L414.701 54.72
L404.657 66.24
L394.993 77.76
L385.708 89.28
L376.869 100.8
L368.477 112.32
L360.598 123.84
L353.299 135.36
L346.692 146.88
L340.844 158.4
L335.934 169.92
L332.184 181.44
L329.952 192.96
L329.908 204.48
L333.39 216
L339.84 223.949
L351 230.17
L362.16 232.819
L373.32 233.626
L384.48 233.28
L395.64 232.059
L406.8 230.216
L417.96 227.866
L429.12 225.078
L440.28 221.944
L451.44 218.511
L462.6 214.802
L473.76 210.862
L484.92 206.715
L496.08 202.383
L507.24 197.868
L518.4 193.213" style="fill:none;stroke:#c56e1a;stroke-dasharray:6.000000,6.000000;stroke-dashoffset:0.0;"/>
   </g>
   <g id="line2d_9">
    <path clip-path="url(#p7ff5b81e1d)" d="
M422.402 43.2
L412.447 54.72
L402.849 66.24
L393.676 77.76
L384.926 89.28
L376.69 100.8
L368.968 112.32
L361.87 123.84
L355.464 135.36
L349.906 146.88
L345.353 158.4
L342.117 169.92
L340.599 181.44
L341.715 192.96
L347.607 204.48
L362.16 213.765
L373.32 216.253
L384.48 216.968
L395.64 216.507
L406.8 215.217
L417.96 213.304
L429.12 210.885
L440.28 208.051
L451.44 204.872
L462.6 201.37
L473.76 197.614
L484.92 193.628
L496.08 189.458
L507.24 185.08
L518.4 180.541" style="fill:none;stroke:#c56e1a;stroke-dasharray:3.000000,5.000000,1.000000,5.000000;stroke-dashoffset:0.0;"/>
   </g>
   <g id="line2d_10">
    <path clip-path="url(#p7ff5b81e1d)" d="
M72 169.068
L116.64 140.544
L161.28 112.136
L205.92 83.8656
L250.56 55.6877
L295.2 27.648
L339.84 -0.29952
L340.963 -1" style="fill:none;stroke:#a5609d;stroke-dasharray:2.000000,8.000000;stroke-dashoffset:0.0;"/>
   </g>
   <g id="line2d_11">
    <path clip-path="url(#p7ff5b81e1d)" d="
M72 214.618
L116.64 187.062
L161.28 159.598
L205.92 132.227
L250.56 104.947
L295.2 77.76
L339.84 50.688
L384.48 23.6851
L425.428 -1" style="fill:none;stroke:#a5609d;stroke-dasharray:2.000000,8.000000;stroke-dashoffset:0.0;"/>
   </g>
   <g id="line2d_12">
    <path clip-path="url(#p7ff5b81e1d)" d="
M72 244.938
L116.64 218.143
L161.28 191.439
L205.92 164.805
L250.56 138.24
L295.2 111.767
L339.84 85.3402
L384.48 59.0054
L429.12 32.7398
L473.76 6.52032
L486.598 -1" style="fill:none;stroke:#a5609d;stroke-dasharray:2.000000,8.000000;stroke-dashoffset:0.0;"/>
   </g>
   <g id="line2d_13">
    <path clip-path="url(#p7ff5b81e1d)" d="
M72 265.697
L116.64 239.57
L161.28 213.489
L205.92 187.476
L250.56 161.533
L295.2 135.636
L339.84 109.786
L384.48 84.0038
L429.12 58.2451
L473.76 32.5555
L518.4 6.93504" style="fill:none;stroke:#a5609d;stroke-dasharray:2.000000,8.000000;stroke-dashoffset:0.0;"/>
   </g>
   <g id="line2d_14">
    <path clip-path="url(#p7ff5b81e1d)" d="
M72 280.12
L116.64 254.569
L161.28 229.064
L205.92 203.604
L250.56 178.168
L295.2 152.778
L339.84 127.434
L384.48 102.113
L429.12 76.8384
L473.76 51.5866
L518.4 26.3808" style="fill:none;stroke:#a5609d;stroke-dasharray:2.000000,8.000000;stroke-dashoffset:0.0;"/>
   </g>
   <g id="line2d_15">
    <path clip-path="url(#p7ff5b81e1d)" d="
M72 290.143
L116.64 265.098
L161.28 240.1
L205.92 215.124
L250.56 190.172
L295.2 165.243
L339.84 140.337
L384.48 115.453
L429.12 90.5933
L473.76 65.7562
L518.4 40.919" style="fill:none;stroke:#a5609d;stroke-dasharray:2.000000,8.000000;stroke-dashoffset:0.0;"/>
   </g>
   <g id="line2d_16">
    <path clip-path="url(#p7ff5b81e1d)" d="
M72 296.986
L116.64 272.448
L161.28 247.91
L205.92 223.373
L250.56 198.858
L295.2 174.344
L339.84 149.852
L384.48 125.338
L429.12 100.869
L473.76 76.3776
L518.4 51.9091" style="fill:none;stroke:#a5609d;stroke-dasharray:2.000000,8.000000;stroke-dashoffset:0.0;"/>
   </g>
   <g id="line2d_17">
    <path clip-path="url(#p7ff5b81e1d)" d="
M72 304.151
L116.64 280.466
L161.28 256.781
L205.92 233.073
L250.56 209.341
L295.2 185.61
L339.84 161.833
L384.48 138.056
L429.12 114.232
L473.76 90.409
L518.4 66.5626" style="fill:none;stroke:#a5609d;stroke-dasharray:2.000000,8.000000;stroke-dashoffset:0.0;"/>
   </g>
   <g id="line2d_18">
    <path clip-path="url(#p7ff5b81e1d)" d="
M72 303.022
L116.64 280.927
L161.28 258.762
L205.92 236.506
L250.56 214.203
L295.2 191.808
L339.84 169.367
L384.48 146.857
L429.12 124.278
L473.76 101.629
L518.4 78.889" style="fill:none;stroke:#a5609d;stroke-dasharray:2.000000,8.000000;stroke-dashoffset:0.0;"/>
   </g>
   <g id="line2d_19">
    <path clip-path="url(#p7ff5b81e1d)" d="
M72 305.58
L116.64 282.655
L161.28 259.799
L205.92 237.082
L250.56 214.433
L295.2 191.854
L339.84 169.367
L384.48 146.949
L429.12 124.6
L473.76 102.298
L518.4 80.0179" style="fill:none;stroke:#8fb032;stroke-linecap:square;"/>
   </g>
   <g id="line2d_20">
    <path clip-path="url(#p7ff5b81e1d)" d="
M67.5298 125.284
L85.7188 118.83
L109.919 110.339
L158.32 93.186
L200.71 78.0714
L226.606 69.0705
L255.585 58.711
L279.94 50.2196
L297.204 43.9359" style="fill:none;stroke:#8fb032;stroke-linecap:square;"/>
   </g>
   <g id="line2d_21">
    <defs>
     <path d="
M0 3
C0.795609 3 1.55874 2.6839 2.12132 2.12132
C2.6839 1.55874 3 0.795609 3 0
C3 -0.795609 2.6839 -1.55874 2.12132 -2.12132
C1.55874 -2.6839 0.795609 -3 0 -3
C-0.795609 -3 -1.55874 -2.6839 -2.12132 -2.12132
C-2.6839 -1.55874 -3 -0.795609 -3 0
C-3 0.795609 -2.6839 1.55874 -2.12132 2.12132
C-1.55874 2.6839 -0.795609 3 0 3
z
" id="md175be6dbf" style="stroke:#000000;stroke-width:0.5;"/>
    </defs>
    <g clip-path="url(#p7ff5b81e1d)">
     <use style="fill:#ff0000;stroke:#000000;stroke-width:0.5;" x="199.224" xlink:href="#md175be6dbf" y="199.6416"/>
    </g>
   </g>
   <g id="line2d_22">
    <g clip-path="url(#p7ff5b81e1d)">
     <use style="fill:#ff0000;stroke:#000000;stroke-width:0.5;" x="279.576" xlink:href="#md175be6dbf" y="199.6416"/>
    </g>
   </g>
   <g id="line2d_23">
    <g clip-path="url(#p7ff5b81e1d)">
     <use style="fill:#ff0000;stroke:#000000;stroke-width:0.5;" x="199.224" xlink:href="#md175be6dbf" y="240.4224"/>
    </g>
   </g>
   <g id="line2d_24">
    <path clip-path="url(#p7ff5b81e1d)" d="
M199.224 388.8
L199.224 43.2" style="fill:none;stroke:#0000ff;stroke-dasharray:6.000000,6.000000;stroke-dashoffset:0.0;"/>
   </g>
   <g id="line2d_25">
    <path clip-path="url(#p7ff5b81e1d)" d="
M72 199.642
L518.4 199.642" style="fill:none;stroke:#0000ff;stroke-dasharray:6.000000,6.000000;stroke-dashoffset:0.0;"/>
   </g>
   <g id="matplotlib.axis_1">
    <g id="xtick_1">
     <g id="line2d_26">
      <defs>
       <path d="
M0 0
L0 -4" id="m93b0483c22" style="stroke:#000000;stroke-width:0.5;"/>
      </defs>
      <g>
       <use style="stroke:#000000;stroke-width:0.5;" x="72.0" xlink:href="#m93b0483c22" y="388.8"/>
      </g>
     </g>
     <g id="line2d_27">
      <defs>
       <path d="
M0 0
L0 4" id="m741efc42ff" style="stroke:#000000;stroke-width:0.5;"/>
      </defs>
      <g>
       <use style="stroke:#000000;stroke-width:0.5;" x="72.0" xlink:href="#m741efc42ff" y="43.2"/>
      </g>
     </g>
     <g id="text_1">
      <!-- $120$ -->
      <defs>
       <path d="
M41.7031 15.4531
L39.9062 15.4531
C38.9062 8.375 38.0938 7.17188 37.7031 6.5625
C37.2031 5.76562 30 5.76562 28.5938 5.76562
L9.40625 5.76562
C13 9.67188 20 16.75 28.5 24.9531
C34.5938 30.7344 41.7031 37.5312 41.7031 47.4219
C41.7031 59.2188 32.2969 66 21.7969 66
C10.7969 66 4.09375 56.3125 4.09375 47.3438
C4.09375 43.4375 7 42.9375 8.20312 42.9375
C9.20312 42.9375 12.2031 43.5469 12.2031 47.0312
C12.2031 50.1094 9.59375 51 8.20312 51
C7.59375 51 7 50.9062 6.59375 50.7031
C8.5 59.2188 14.2969 63.4062 20.4062 63.4062
C29.0938 63.4062 34.7969 56.5156 34.7969 47.4219
C34.7969 38.7344 29.7031 31.25 24 24.75
L4.09375 2.28125
L4.09375 0
L39.2969 0
z
" id="CMR17-50"/>
       <path d="
M26.5938 63.3125
C26.5938 65.4062 26.5 65.5 25.0938 65.5
C21.2031 61.1875 15.2969 59.7969 9.70312 59.7969
C9.40625 59.7969 8.90625 59.7969 8.79688 59.5
C8.70312 59.2969 8.70312 59.0938 8.70312 57
C11.7969 57 17 57.5938 21 59.9844
L21 7.20312
C21 3.6875 20.7969 2.5 12.2031 2.5
L9.20312 2.5
L9.20312 0
C14 0 19 0 23.7969 0
C28.5938 0 33.5938 0 38.4062 0
L38.4062 2.5
L35.4062 2.5
C26.7969 2.5 26.5938 3.59375 26.5938 7.15625
z
" id="CMR17-49"/>
       <path d="
M42 31.6406
C42 37.75 41.9062 48.125 37.7031 56.1094
C34 63.1094 28.0938 65.5938 22.9062 65.5938
C18.0938 65.5938 12 63.4062 8.20312 56.2031
C4.20312 48.7188 3.79688 39.4375 3.79688 31.6406
C3.79688 25.9531 3.90625 17.2812 7 9.67188
C11.2969 -0.609375 19 -2 22.9062 -2
C27.5 -2 34.5 -0.109375 38.5938 9.375
C41.5938 16.2812 42 24.3594 42 31.6406
M22.9062 -0.40625
C16.5 -0.40625 12.7031 5.07812 11.2969 12.6875
C10.2031 18.5625 10.2031 27.1562 10.2031 32.75
C10.2031 40.4375 10.2031 46.8281 11.5 52.9219
C13.4062 61.3906 19 64 22.9062 64
C27 64 32.2969 61.2969 34.2031 53.125
C35.5 47.4375 35.5938 40.7344 35.5938 32.75
C35.5938 26.25 35.5938 18.2656 34.4062 12.375
C32.2969 1.48438 26.4062 -0.40625 22.9062 -0.40625" id="CMR17-48"/>
      </defs>
      <g transform="translate(63.2205146229 401.317984317)scale(0.12 -0.12)">
       <use transform="scale(0.996264009963)" xlink:href="#CMR17-49"/>
       <use transform="translate(45.6904771171 0.0)scale(0.996264009963)" xlink:href="#CMR17-50"/>
       <use transform="translate(91.3809542341 0.0)scale(0.996264009963)" xlink:href="#CMR17-48"/>
      </g>
     </g>
    </g>
    <g id="xtick_2">
     <g id="line2d_28">
      <g>
       <use style="stroke:#000000;stroke-width:0.5;" x="183.6" xlink:href="#m93b0483c22" y="388.8"/>
      </g>
     </g>
     <g id="line2d_29">
      <g>
       <use style="stroke:#000000;stroke-width:0.5;" x="183.6" xlink:href="#m741efc42ff" y="43.2"/>
      </g>
     </g>
     <g id="text_2">
      <!-- $125$ -->
      <defs>
       <path d="
M11.4062 57.6875
C12.4062 57.2812 16.5 56 20.7031 56
C30 56 35.0938 61.0156 38 63.9219
C38 64.7344 38 65.25 37.4062 65.25
C37.2969 65.25 37.0938 65.25 36.2969 64.8281
C32.7969 63.3125 28.7031 62.0781 23.7031 62.0781
C20.7031 62.0781 16.2031 62.5 11.2969 64.7344
C10.2031 65.25 10 65.25 9.90625 65.25
C9.40625 65.25 9.29688 65.1406 9.29688 63.1562
L9.29688 34.2812
C9.29688 32.5 9.29688 32 10.2969 32
C10.7969 32 11 32.2031 11.5 32.9062
C14.7031 37.4844 19.0938 39.4062 24.0938 39.4062
C27.5938 39.4062 35.0938 37.2188 35.0938 20.1406
C35.0938 16.9531 35.0938 11.1719 32.0938 6.57812
C29.5938 2.48438 25.7031 0.390625 21.4062 0.390625
C14.7969 0.390625 8.09375 5 6.29688 12.7188
C6.70312 12.6094 7.5 12.4219 7.90625 12.4219
C9.20312 12.4219 11.7031 13.125 11.7031 16.2188
C11.7031 18.9062 9.79688 20 7.90625 20
C5.59375 20 4.09375 18.5938 4.09375 15.7969
C4.09375 7.09375 11 -2 21.5938 -2
C31.9062 -2 41.7031 6.875 41.7031 19.75
C41.7031 31.7188 33.9062 41 24.2031 41
C19.0938 41 14.7969 39.0938 11.4062 35.4531
z
" id="CMR17-53"/>
      </defs>
      <g transform="translate(174.820514623 401.317984317)scale(0.12 -0.12)">
       <use transform="scale(0.996264009963)" xlink:href="#CMR17-49"/>
       <use transform="translate(45.6904771171 0.0)scale(0.996264009963)" xlink:href="#CMR17-50"/>
       <use transform="translate(91.3809542341 0.0)scale(0.996264009963)" xlink:href="#CMR17-53"/>
      </g>
     </g>
    </g>
    <g id="xtick_3">
     <g id="line2d_30">
      <g>
       <use style="stroke:#000000;stroke-width:0.5;" x="295.2" xlink:href="#m93b0483c22" y="388.8"/>
      </g>
     </g>
     <g id="line2d_31">
      <g>
       <use style="stroke:#000000;stroke-width:0.5;" x="295.2" xlink:href="#m741efc42ff" y="43.2"/>
      </g>
     </g>
     <g id="text_3">
      <!-- $130$ -->
      <defs>
       <path d="
M22.0938 33.7031
C31 33.7031 34.9062 25.9688 34.9062 17.0312
C34.9062 5 28.5 0.390625 22.7031 0.390625
C17.4062 0.390625 8.79688 3.03125 6.09375 10.8281
C6.59375 10.625 7.09375 10.625 7.59375 10.625
C10 10.625 11.7969 12.2188 11.7969 14.8125
C11.7969 17.7031 9.59375 19 7.59375 19
C5.90625 19 3.29688 18.2031 3.29688 14.4688
C3.29688 5.23438 12.2969 -2 22.9062 -2
C34 -2 42.5 6.71875 42.5 16.9531
C42.5 26.6719 34.5 33.6875 25 34.7969
C32.5938 36.375 39.9062 43.0625 39.9062 52.0156
C39.9062 59.6875 32 65.2969 23 65.2969
C13.9062 65.2969 5.90625 59.8281 5.90625 52.0156
C5.90625 48.5938 8.5 48 9.79688 48
C11.9062 48 13.7031 49.2969 13.7031 51.8906
C13.7031 54.4688 11.9062 55.7656 9.79688 55.7656
C9.40625 55.7656 8.90625 55.7656 8.5 55.5625
C11.4062 61.8594 19.2969 63 22.7969 63
C26.2969 63 32.9062 61.3281 32.9062 51.875
C32.9062 49.1094 32.5 44.1875 29.0938 39.8438
C26.0938 36 22.7031 36 19.4062 35.5938
C18.9062 35.5938 16.5938 35.5938 16.2031 35.5938
C15.5 35.4844 15.0938 35.3906 15.0938 34.5938
C15.0938 33.8125 15.2031 33.7031 17.2031 33.7031
z
" id="CMR17-51"/>
      </defs>
      <g transform="translate(286.420514623 401.317984317)scale(0.12 -0.12)">
       <use transform="scale(0.996264009963)" xlink:href="#CMR17-49"/>
       <use transform="translate(45.6904771171 0.0)scale(0.996264009963)" xlink:href="#CMR17-51"/>
       <use transform="translate(91.3809542341 0.0)scale(0.996264009963)" xlink:href="#CMR17-48"/>
      </g>
     </g>
    </g>
    <g id="xtick_4">
     <g id="line2d_32">
      <g>
       <use style="stroke:#000000;stroke-width:0.5;" x="406.8" xlink:href="#m93b0483c22" y="388.8"/>
      </g>
     </g>
     <g id="line2d_33">
      <g>
       <use style="stroke:#000000;stroke-width:0.5;" x="406.8" xlink:href="#m741efc42ff" y="43.2"/>
      </g>
     </g>
     <g id="text_4">
      <!-- $135$ -->
      <g transform="translate(398.020514623 401.317984317)scale(0.12 -0.12)">
       <use transform="scale(0.996264009963)" xlink:href="#CMR17-49"/>
       <use transform="translate(45.6904771171 0.0)scale(0.996264009963)" xlink:href="#CMR17-51"/>
       <use transform="translate(91.3809542341 0.0)scale(0.996264009963)" xlink:href="#CMR17-53"/>
      </g>
     </g>
    </g>
    <g id="xtick_5">
     <g id="line2d_34">
      <g>
       <use style="stroke:#000000;stroke-width:0.5;" x="518.4" xlink:href="#m93b0483c22" y="388.8"/>
      </g>
     </g>
     <g id="line2d_35">
      <g>
       <use style="stroke:#000000;stroke-width:0.5;" x="518.4" xlink:href="#m741efc42ff" y="43.2"/>
      </g>
     </g>
     <g id="text_5">
      <!-- $140$ -->
      <defs>
       <path d="
M33.5938 64.3281
C33.5938 66.4062 33.5 66.5 31.7031 66.5
L2 19.5938
L2 17
L27.7969 17
L27.7969 7.14062
C27.7969 3.5 27.5938 2.5 20.5938 2.5
L18.7031 2.5
L18.7031 0
C21.9062 0 27.2969 0 30.7031 0
C34.0938 0 39.5 0 42.7031 0
L42.7031 2.5
L40.7969 2.5
C33.7969 2.5 33.5938 3.5 33.5938 7.14062
L33.5938 17
L43.7969 17
L43.7969 19.5938
L33.5938 19.5938
z

M28.0938 57.7656
L28.0938 19.5938
L4 19.5938
z
" id="CMR17-52"/>
      </defs>
      <g transform="translate(509.620514623 401.317984317)scale(0.12 -0.12)">
       <use transform="scale(0.996264009963)" xlink:href="#CMR17-49"/>
       <use transform="translate(45.6904771171 0.0)scale(0.996264009963)" xlink:href="#CMR17-52"/>
       <use transform="translate(91.3809542341 0.0)scale(0.996264009963)" xlink:href="#CMR17-48"/>
      </g>
     </g>
    </g>
    <g id="xtick_6">
     <g id="line2d_36">
      <defs>
       <path d="
M0 0
L0 -2" id="m177f7580d0" style="stroke:#000000;stroke-width:0.5;"/>
      </defs>
      <g>
       <use style="stroke:#000000;stroke-width:0.5;" x="94.32" xlink:href="#m177f7580d0" y="388.8"/>
      </g>
     </g>
     <g id="line2d_37">
      <defs>
       <path d="
M0 0
L0 2" id="m5284c7e2a0" style="stroke:#000000;stroke-width:0.5;"/>
      </defs>
      <g>
       <use style="stroke:#000000;stroke-width:0.5;" x="94.32" xlink:href="#m5284c7e2a0" y="43.2"/>
      </g>
     </g>
    </g>
    <g id="xtick_7">
     <g id="line2d_38">
      <g>
       <use style="stroke:#000000;stroke-width:0.5;" x="116.64" xlink:href="#m177f7580d0" y="388.8"/>
      </g>
     </g>
     <g id="line2d_39">
      <g>
       <use style="stroke:#000000;stroke-width:0.5;" x="116.64" xlink:href="#m5284c7e2a0" y="43.2"/>
      </g>
     </g>
    </g>
    <g id="xtick_8">
     <g id="line2d_40">
      <g>
       <use style="stroke:#000000;stroke-width:0.5;" x="138.96" xlink:href="#m177f7580d0" y="388.8"/>
      </g>
     </g>
     <g id="line2d_41">
      <g>
       <use style="stroke:#000000;stroke-width:0.5;" x="138.96" xlink:href="#m5284c7e2a0" y="43.2"/>
      </g>
     </g>
    </g>
    <g id="xtick_9">
     <g id="line2d_42">
      <g>
       <use style="stroke:#000000;stroke-width:0.5;" x="161.28" xlink:href="#m177f7580d0" y="388.8"/>
      </g>
     </g>
     <g id="line2d_43">
      <g>
       <use style="stroke:#000000;stroke-width:0.5;" x="161.28" xlink:href="#m5284c7e2a0" y="43.2"/>
      </g>
     </g>
    </g>
    <g id="xtick_10">
     <g id="line2d_44">
      <g>
       <use style="stroke:#000000;stroke-width:0.5;" x="205.92" xlink:href="#m177f7580d0" y="388.8"/>
      </g>
     </g>
     <g id="line2d_45">
      <g>
       <use style="stroke:#000000;stroke-width:0.5;" x="205.92" xlink:href="#m5284c7e2a0" y="43.2"/>
      </g>
     </g>
    </g>
    <g id="xtick_11">
     <g id="line2d_46">
      <g>
       <use style="stroke:#000000;stroke-width:0.5;" x="228.24" xlink:href="#m177f7580d0" y="388.8"/>
      </g>
     </g>
     <g id="line2d_47">
      <g>
       <use style="stroke:#000000;stroke-width:0.5;" x="228.24" xlink:href="#m5284c7e2a0" y="43.2"/>
      </g>
     </g>
    </g>
    <g id="xtick_12">
     <g id="line2d_48">
      <g>
       <use style="stroke:#000000;stroke-width:0.5;" x="250.56" xlink:href="#m177f7580d0" y="388.8"/>
      </g>
     </g>
     <g id="line2d_49">
      <g>
       <use style="stroke:#000000;stroke-width:0.5;" x="250.56" xlink:href="#m5284c7e2a0" y="43.2"/>
      </g>
     </g>
    </g>
    <g id="xtick_13">
     <g id="line2d_50">
      <g>
       <use style="stroke:#000000;stroke-width:0.5;" x="272.88" xlink:href="#m177f7580d0" y="388.8"/>
      </g>
     </g>
     <g id="line2d_51">
      <g>
       <use style="stroke:#000000;stroke-width:0.5;" x="272.88" xlink:href="#m5284c7e2a0" y="43.2"/>
      </g>
     </g>
    </g>
    <g id="xtick_14">
     <g id="line2d_52">
      <g>
       <use style="stroke:#000000;stroke-width:0.5;" x="317.52" xlink:href="#m177f7580d0" y="388.8"/>
      </g>
     </g>
     <g id="line2d_53">
      <g>
       <use style="stroke:#000000;stroke-width:0.5;" x="317.52" xlink:href="#m5284c7e2a0" y="43.2"/>
      </g>
     </g>
    </g>
    <g id="xtick_15">
     <g id="line2d_54">
      <g>
       <use style="stroke:#000000;stroke-width:0.5;" x="339.84" xlink:href="#m177f7580d0" y="388.8"/>
      </g>
     </g>
     <g id="line2d_55">
      <g>
       <use style="stroke:#000000;stroke-width:0.5;" x="339.84" xlink:href="#m5284c7e2a0" y="43.2"/>
      </g>
     </g>
    </g>
    <g id="xtick_16">
     <g id="line2d_56">
      <g>
       <use style="stroke:#000000;stroke-width:0.5;" x="362.16" xlink:href="#m177f7580d0" y="388.8"/>
      </g>
     </g>
     <g id="line2d_57">
      <g>
       <use style="stroke:#000000;stroke-width:0.5;" x="362.16" xlink:href="#m5284c7e2a0" y="43.2"/>
      </g>
     </g>
    </g>
    <g id="xtick_17">
     <g id="line2d_58">
      <g>
       <use style="stroke:#000000;stroke-width:0.5;" x="384.48" xlink:href="#m177f7580d0" y="388.8"/>
      </g>
     </g>
     <g id="line2d_59">
      <g>
       <use style="stroke:#000000;stroke-width:0.5;" x="384.48" xlink:href="#m5284c7e2a0" y="43.2"/>
      </g>
     </g>
    </g>
    <g id="xtick_18">
     <g id="line2d_60">
      <g>
       <use style="stroke:#000000;stroke-width:0.5;" x="429.12" xlink:href="#m177f7580d0" y="388.8"/>
      </g>
     </g>
     <g id="line2d_61">
      <g>
       <use style="stroke:#000000;stroke-width:0.5;" x="429.12" xlink:href="#m5284c7e2a0" y="43.2"/>
      </g>
     </g>
    </g>
    <g id="xtick_19">
     <g id="line2d_62">
      <g>
       <use style="stroke:#000000;stroke-width:0.5;" x="451.44" xlink:href="#m177f7580d0" y="388.8"/>
      </g>
     </g>
     <g id="line2d_63">
      <g>
       <use style="stroke:#000000;stroke-width:0.5;" x="451.44" xlink:href="#m5284c7e2a0" y="43.2"/>
      </g>
     </g>
    </g>
    <g id="xtick_20">
     <g id="line2d_64">
      <g>
       <use style="stroke:#000000;stroke-width:0.5;" x="473.76" xlink:href="#m177f7580d0" y="388.8"/>
      </g>
     </g>
     <g id="line2d_65">
      <g>
       <use style="stroke:#000000;stroke-width:0.5;" x="473.76" xlink:href="#m5284c7e2a0" y="43.2"/>
      </g>
     </g>
    </g>
    <g id="xtick_21">
     <g id="line2d_66">
      <g>
       <use style="stroke:#000000;stroke-width:0.5;" x="496.08" xlink:href="#m177f7580d0" y="388.8"/>
      </g>
     </g>
     <g id="line2d_67">
      <g>
       <use style="stroke:#000000;stroke-width:0.5;" x="496.08" xlink:href="#m5284c7e2a0" y="43.2"/>
      </g>
     </g>
    </g>
    <g id="text_6">
     <!-- $M_H, GeV$ -->
     <defs>
      <path d="
M17.9062 23.1094
C20.5938 23.1094 27.4062 23.1094 32.2031 24.9219
C39.7969 27.8594 40.5 33.7188 40.5 35.5312
C40.5 39.9688 36.7031 44 30.0938 44
C19.5938 44 4.5 34.5312 4.5 16.7656
C4.5 6.28125 10.5 -1 19.5938 -1
C33.2031 -1 41.7969 9.53125 41.7969 10.8125
C41.7969 11.4062 41.2031 11.9062 40.7969 11.9062
C40.5 11.9062 40.4062 11.8125 39.5 10.9219
C33.0938 2.48438 23.5938 1 19.7969 1
C14.0938 1 11.0938 5.46875 11.0938 12.8438
C11.0938 14.2344 11.0938 16.7344 12.5938 23.1094
z

M13.0938 25
C17.4062 40.5 26.9062 42.0156 30.0938 42.0156
C34.5 42.0156 37.5 39.4062 37.5 35.5781
C37.5 25 21.5 25 17.2969 25
z
" id="CMMI12-101"/>
      <path d="
M61.9062 56.7188
C65.2969 62.1094 68.4062 64.5 73.5 64.9062
C74.5 65 75.2969 65 75.2969 66.7344
C75.2969 67.125 75.0938 67.7031 74.2031 67.7031
C72.4062 67.7031 68.0938 67.7031 66.2969 67.7031
C63.4062 67.7031 60.4062 67.7031 57.5938 67.7031
C56.7969 67.7031 55.7969 67.7031 55.7969 65.9375
C55.7969 65.0938 56.7031 65 57.0938 65
C60.7969 64.7031 61.2031 62.9062 61.2031 61.7031
C61.2031 60.1875 59.7969 57.8906 59.7031 57.7969
L28.2969 7.98438
L21.2969 61.8125
C21.2969 65 26.5 65 27.5938 65
C29.0938 65 30 65 30 66.7656
C30 67.7031 28.9062 67.7031 28.5938 67.7031
C26.9062 67.7031 24.9062 67.7031 23.2031 67.7031
L17.5938 67.7031
C10.2969 67.7031 7.29688 67.7031 7.20312 67.7031
C6.59375 67.7031 5.40625 67.7031 5.40625 66.0156
C5.40625 65 6.09375 65 7.70312 65
C12.7969 65 13.0938 64.0938 13.4062 61.6094
L21.4062 -0.109375
C21.7031 -2.20312 21.7031 -2.5 23.0938 -2.5
C24.2969 -2.5 24.7969 -2.20312 25.7969 -0.609375
z
" id="CMMI12-86"/>
      <path d="
M90.7969 60.7344
C91.7031 64.1094 91.9062 65.1094 99 65.1094
C100.906 65.1094 101.797 65.1094 101.797 67
C101.797 68 101.094 68 99.2031 68
L87.2031 68
C84.7031 68 84.5938 67.9062 83.5 66.2969
L47 8.78125
L39.5 65.7969
C39.2031 68 39.0938 68 36.5 68
L24.0938 68
C22.2031 68 21.2969 68 21.2969 66.1094
C21.2969 65.1094 22.2031 65.1094 23.7031 65.1094
C29.7969 65.1094 29.7969 64.3125 29.7969 63.2031
C29.7969 63.0156 29.7969 62.4062 29.4062 60.8906
L16.5938 9.90625
C15.4062 5.10938 13.0938 2.90625 6.40625 2.90625
C6.09375 2.90625 4.90625 2.8125 4.90625 1.09375
C4.90625 0 5.79688 0 6.20312 0
C8.20312 0 13.2969 0 15.2969 0
L20.0938 0
C21.5 0 23.2031 0 24.5938 0
C25.2969 0 26.4062 0 26.4062 1.90625
C26.4062 2.8125 25.4062 2.90625 25 2.90625
C21.7031 2.90625 18.5 3.5 18.5 7.09375
C18.5 8.09375 18.5 8.1875 18.9062 9.57812
L32.7031 64.5
L32.7969 64.5
L41.0938 2.6875
C41.4062 0.296875 41.5 0 42.4062 0
C43.5 0 44 0.796875 44.5 1.70312
L84.7031 65.1094
L84.7969 65.1094
L70.2969 7.40625
C69.4062 3.90625 69.2031 2.90625 62.2031 2.90625
C60.2969 2.90625 59.2969 2.90625 59.2969 1.09375
C59.2969 0 60.2031 0 60.7969 0
C62.5 0 64.5 0 66.2031 0
L78 0
C79.7031 0 81.7969 0 83.5 0
C84.2969 0 85.4062 0 85.4062 1.90625
C85.4062 2.90625 84.5 2.90625 83 2.90625
C76.9062 2.90625 76.9062 3.70312 76.9062 4.70312
C76.9062 4.8125 76.9062 5.5 77.0938 6.28125
z
" id="CMMI12-77"/>
      <path d="
M74.5938 69.1094
C74.5938 70 73.9062 70 73.7031 70
C73.5 70 73.0938 70 72.2969 69
L65.4062 60.75
C64.9062 61.5469 62.9062 65.0312 59 67.3281
C54.7031 70 50.4062 70 48.9062 70
C27.5 70 5 48.3594 5 24.9219
C5 8.53125 16.4062 -2 31.4062 -2
C38.5938 -2 47.7031 0.375 52.7031 6.64062
C53.7969 2.875 56 0.1875 56.7031 0.1875
C57.2031 0.1875 57.2969 0.5 57.4062 0.5
C57.5 0.6875 58.2969 4.17188 58.7969 5.95312
L60.4062 12.2969
C61.2031 15.5625 61.5938 16.9688 62.2969 19.9375
C63.2969 23.7031 63.5 24 69 24
C69.4062 24 70.5938 24 70.5938 25.9688
C70.5938 27 69.5938 27 69.2969 27
C67.5938 27 65.7031 27 63.9062 27
L58.5 27
C54.2969 27 49.9062 27 45.7969 27
C44.9062 27 43.7031 27 43.7031 25.0781
C43.7031 24 44.5 24 44.5 24
L47 24
C54.9062 24 54.9062 23.2031 54.9062 21.7344
C54.9062 21.625 53 11.6562 51.0938 8.70312
C47.2969 3.15625 39.4062 0.890625 33.5 0.890625
C25.7969 0.890625 13.2969 4.875 13.2969 22.0312
C13.2969 28.6875 15.7031 43.875 25.4062 55.0938
C31.7031 62.25 41 67.1094 49.7969 67.1094
C61.5938 67.1094 65.7969 57.0781 65.7969 47.9375
C65.7969 46.3594 65.4062 44.1719 65.4062 42.7812
C65.4062 41.8906 66.4062 41.8906 66.7031 41.8906
C67.7969 41.8906 67.9062 41.9844 68.2969 43.7656
z
" id="CMMI12-71"/>
      <path d="
M74.7969 60.7344
C75.7031 64.1094 75.9062 65.1094 83 65.1094
C84.7969 65.1094 85.7969 65.1094 85.7969 66.9062
C85.7969 68 84.9062 68 84.2969 68
C82.5 68 80.4062 68 78.5 68
L66.7031 68
C64.7969 68 62.7031 68 60.7969 68
C60.0938 68 58.9062 68 58.9062 66.1094
C58.9062 65.1094 59.5938 65.1094 61.5 65.1094
C67.5 65.1094 67.5 64.3125 67.5 63.2188
C67.5 63.0312 67.5 62.4219 67.0938 60.9219
L61 36.8906
L30.7969 36.8906
L36.7969 60.7344
C37.7031 64.1094 37.9062 65.1094 45 65.1094
C46.7969 65.1094 47.7969 65.1094 47.7969 66.9062
C47.7969 68 46.9062 68 46.2969 68
C44.5 68 42.4062 68 40.5 68
L28.7031 68
C26.7969 68 24.7031 68 22.7969 68
C22.0938 68 20.9062 68 20.9062 66.1094
C20.9062 65.1094 21.5938 65.1094 23.5 65.1094
C29.5 65.1094 29.5 64.3125 29.5 63.2031
C29.5 63.0156 29.5 62.4062 29.0938 60.9219
L15.5938 7.375
C14.7031 3.89062 14.5 2.89062 7.59375 2.89062
C5.29688 2.89062 4.59375 2.89062 4.59375 1
C4.59375 0 5.70312 0 6 0
C7.79688 0 9.90625 0 11.7969 0
L23.5938 0
C25.5 0 27.5938 0 29.5 0
C30.2969 0 31.4062 0 31.4062 1.89062
C31.4062 2.89062 30.5 2.89062 29 2.89062
C22.9062 2.89062 22.9062 3.6875 22.9062 4.6875
C22.9062 4.79688 22.9062 5.48438 23.0938 6.28125
L30 34
L60.2969 34
C58.5938 27.3906 53.5 6.5 53.2969 5.875
C52.2031 2.89062 50.5938 2.89062 44.7031 2.89062
C43.5 2.89062 42.5938 2.89062 42.5938 1
C42.5938 0 43.7031 0 44 0
C45.7969 0 47.9062 0 49.7969 0
L61.5938 0
C63.5 0 65.5938 0 67.5 0
C68.2969 0 69.4062 0 69.4062 1.89062
C69.4062 2.89062 68.5 2.89062 67 2.89062
C60.9062 2.89062 60.9062 3.6875 60.9062 4.6875
C60.9062 4.79688 60.9062 5.48438 61.0938 6.26562
z
" id="CMMI12-72"/>
      <path d="
M19.5 -0.484375
C19.5 5.35938 17.5938 9.67188 13.5 9.67188
C10.2969 9.67188 8.70312 7.07812 8.70312 4.89062
C8.70312 2.6875 10.2031 0 13.5938 0
C14.9062 0 16 0.40625 16.9062 1.29688
C17.0938 1.5 17.2031 1.5 17.2969 1.5
C17.5 1.5 17.5 0.078125 17.5 -0.421875
C17.5 -3.75 16.9062 -10.2969 11.0938 -16.875
C10 -18.0781 10 -18.2812 10 -18.4844
C10 -19 10.5 -19.5 11 -19.5
C11.7969 -19.5 19.5 -12.0469 19.5 -0.484375" id="CMMI12-59"/>
     </defs>
     <g transform="translate(264.491783923 420.221671296)scale(0.16 -0.16)">
      <use transform="translate(0.0 14.9439145441)scale(0.996264009963)" xlink:href="#CMMI12-77"/>
      <use transform="translate(94.3734250953 0.0)scale(0.697381766617)" xlink:href="#CMMI12-72"/>
      <use transform="translate(156.836515168 14.9439145441)scale(0.996264009963)" xlink:href="#CMMI12-59"/>
      <use transform="translate(200.538097491 14.9439145441)scale(0.996264009963)" xlink:href="#CMMI12-71"/>
      <use transform="translate(277.484959357 14.9439145441)scale(0.996264009963)" xlink:href="#CMMI12-101"/>
      <use transform="translate(322.696960373 14.9439145441)scale(0.996264009963)" xlink:href="#CMMI12-86"/>
     </g>
    </g>
   </g>
   <g id="matplotlib.axis_2">
    <g id="ytick_1">
     <g id="line2d_68">
      <defs>
       <path d="
M0 0
L4 0" id="m728421d6d4" style="stroke:#000000;stroke-width:0.5;"/>
      </defs>
      <g>
       <use style="stroke:#000000;stroke-width:0.5;" x="72.0" xlink:href="#m728421d6d4" y="388.8"/>
      </g>
     </g>
     <g id="line2d_69">
      <defs>
       <path d="
M0 0
L-4 0" id="mcb0005524f" style="stroke:#000000;stroke-width:0.5;"/>
      </defs>
      <g>
       <use style="stroke:#000000;stroke-width:0.5;" x="518.4" xlink:href="#mcb0005524f" y="388.8"/>
      </g>
     </g>
     <g id="text_7">
      <!-- $165$ -->
      <defs>
       <path d="
M10.5938 34
C10.5938 57.6562 21.7969 63 28.2969 63
C30.4062 63 35.5 62.6406 37.5 59
C35.9062 59 32.9062 59 32.9062 55.5156
C32.9062 52.8281 35.0938 51.9219 36.5 51.9219
C37.4062 51.9219 40.0938 52.3125 40.0938 55.625
C40.0938 61.7812 35.0938 65.2969 28.2031 65.2969
C16.2969 65.2969 3.79688 52.9688 3.79688 31
C3.79688 3.95312 15.0938 -2 23.0938 -2
C32.7969 -2 42 6.67188 42 20.0469
C42 32.5156 33.9062 41.5938 23.7031 41.5938
C17.5938 41.5938 13.0938 37.6094 10.5938 30.625
z

M23.0938 0.390625
C10.7969 0.390625 10.7969 18.75 10.7969 22.4375
C10.7969 29.625 14.2031 40 23.5 40
C25.2031 40 30.0938 40 33.4062 33.125
C35.2031 29.2188 35.2031 25.1406 35.2031 20.1406
C35.2031 14.75 35.2031 10.7812 33.0938 6.78125
C30.9062 2.67188 27.7031 0.390625 23.0938 0.390625" id="CMR17-54"/>
      </defs>
      <g transform="translate(50.4410292458 391.78580488)scale(0.12 -0.12)">
       <use transform="scale(0.996264009963)" xlink:href="#CMR17-49"/>
       <use transform="translate(45.6904771171 0.0)scale(0.996264009963)" xlink:href="#CMR17-54"/>
       <use transform="translate(91.3809542341 0.0)scale(0.996264009963)" xlink:href="#CMR17-53"/>
      </g>
     </g>
    </g>
    <g id="ytick_2">
     <g id="line2d_70">
      <g>
       <use style="stroke:#000000;stroke-width:0.5;" x="72.0" xlink:href="#m728421d6d4" y="273.6"/>
      </g>
     </g>
     <g id="line2d_71">
      <g>
       <use style="stroke:#000000;stroke-width:0.5;" x="518.4" xlink:href="#mcb0005524f" y="273.6"/>
      </g>
     </g>
     <g id="text_8">
      <!-- $170$ -->
      <defs>
       <path d="
M45.0938 61.5781
L45.0938 63.7656
L21.5938 63.7656
C9.90625 63.7656 9.70312 65.0781 9.29688 67
L7.5 67
L4.59375 48.3438
L6.40625 48.3438
C6.70312 50.2344 7.40625 55.3125 8.59375 57.2031
C9.20312 58 16.5938 58 18.2969 58
L40.2969 58
L29.2031 41.5781
C21.7969 30.5312 16.7031 15.6094 16.7031 2.57812
C16.7031 1.39062 16.7031 -2 20.2969 -2
C23.9062 -2 23.9062 1.39062 23.9062 2.67188
L23.9062 7.26562
C23.9062 23.5625 26.7031 34.3125 31.2969 41.1875
z
" id="CMR17-55"/>
      </defs>
      <g transform="translate(50.4410292458 276.58580488)scale(0.12 -0.12)">
       <use transform="scale(0.996264009963)" xlink:href="#CMR17-49"/>
       <use transform="translate(45.6904771171 0.0)scale(0.996264009963)" xlink:href="#CMR17-55"/>
       <use transform="translate(91.3809542341 0.0)scale(0.996264009963)" xlink:href="#CMR17-48"/>
      </g>
     </g>
    </g>
    <g id="ytick_3">
     <g id="line2d_72">
      <g>
       <use style="stroke:#000000;stroke-width:0.5;" x="72.0" xlink:href="#m728421d6d4" y="158.4"/>
      </g>
     </g>
     <g id="line2d_73">
      <g>
       <use style="stroke:#000000;stroke-width:0.5;" x="518.4" xlink:href="#mcb0005524f" y="158.4"/>
      </g>
     </g>
     <g id="text_9">
      <!-- $175$ -->
      <g transform="translate(50.4410292458 161.38580488)scale(0.12 -0.12)">
       <use transform="scale(0.996264009963)" xlink:href="#CMR17-49"/>
       <use transform="translate(45.6904771171 0.0)scale(0.996264009963)" xlink:href="#CMR17-55"/>
       <use transform="translate(91.3809542341 0.0)scale(0.996264009963)" xlink:href="#CMR17-53"/>
      </g>
     </g>
    </g>
    <g id="ytick_4">
     <g id="line2d_74">
      <g>
       <use style="stroke:#000000;stroke-width:0.5;" x="72.0" xlink:href="#m728421d6d4" y="43.2"/>
      </g>
     </g>
     <g id="line2d_75">
      <g>
       <use style="stroke:#000000;stroke-width:0.5;" x="518.4" xlink:href="#mcb0005524f" y="43.2"/>
      </g>
     </g>
     <g id="text_10">
      <!-- $180$ -->
      <defs>
       <path d="
M27.2031 35.375
C33.5 38.5625 39.9062 43.3281 39.9062 50.9844
C39.9062 60.0312 31.0938 65.2969 23 65.2969
C13.9062 65.2969 5.90625 58.7344 5.90625 49.6875
C5.90625 47.2031 6.5 42.9219 10.4062 39.1406
C11.4062 38.1562 15.5938 35.1719 18.2969 33.2812
C13.7969 30.9844 3.29688 25.5312 3.29688 14.5938
C3.29688 4.35938 13.0938 -2 22.7969 -2
C33.5 -2 42.5 5.65625 42.5 15.7969
C42.5 24.8438 36.4062 29.0312 32.4062 31.7031
z

M14.0938 44.125
C13.2969 44.625 9.29688 47.7031 9.29688 52.375
C9.29688 58.4375 15.5938 63 22.7969 63
C30.7031 63 36.5 57.4531 36.5 50.9844
C36.5 41.7344 26.0938 36.4688 25.5938 36.4688
C25.5 36.4688 25.4062 36.4688 24.5938 37.0781
z

M32.5 23.7344
C34 22.6406 38.7969 19.375 38.7969 13.2969
C38.7969 5.95312 31.4062 0.390625 23 0.390625
C13.9062 0.390625 7 6.84375 7 14.6875
C7 22.5469 13.0938 29.0938 20 32.1875
z
" id="CMR17-56"/>
      </defs>
      <g transform="translate(50.4410292458 46.1858048797)scale(0.12 -0.12)">
       <use transform="scale(0.996264009963)" xlink:href="#CMR17-49"/>
       <use transform="translate(45.6904771171 0.0)scale(0.996264009963)" xlink:href="#CMR17-56"/>
       <use transform="translate(91.3809542341 0.0)scale(0.996264009963)" xlink:href="#CMR17-48"/>
      </g>
     </g>
    </g>
    <g id="ytick_5">
     <g id="line2d_76">
      <defs>
       <path d="
M0 0
L2 0" id="mf0c55a9a47" style="stroke:#000000;stroke-width:0.5;"/>
      </defs>
      <g>
       <use style="stroke:#000000;stroke-width:0.5;" x="72.0" xlink:href="#mf0c55a9a47" y="365.76"/>
      </g>
     </g>
     <g id="line2d_77">
      <defs>
       <path d="
M0 0
L-2 0" id="ma4f294b3af" style="stroke:#000000;stroke-width:0.5;"/>
      </defs>
      <g>
       <use style="stroke:#000000;stroke-width:0.5;" x="518.4" xlink:href="#ma4f294b3af" y="365.76"/>
      </g>
     </g>
    </g>
    <g id="ytick_6">
     <g id="line2d_78">
      <g>
       <use style="stroke:#000000;stroke-width:0.5;" x="72.0" xlink:href="#mf0c55a9a47" y="342.72"/>
      </g>
     </g>
     <g id="line2d_79">
      <g>
       <use style="stroke:#000000;stroke-width:0.5;" x="518.4" xlink:href="#ma4f294b3af" y="342.72"/>
      </g>
     </g>
    </g>
    <g id="ytick_7">
     <g id="line2d_80">
      <g>
       <use style="stroke:#000000;stroke-width:0.5;" x="72.0" xlink:href="#mf0c55a9a47" y="319.68"/>
      </g>
     </g>
     <g id="line2d_81">
      <g>
       <use style="stroke:#000000;stroke-width:0.5;" x="518.4" xlink:href="#ma4f294b3af" y="319.68"/>
      </g>
     </g>
    </g>
    <g id="ytick_8">
     <g id="line2d_82">
      <g>
       <use style="stroke:#000000;stroke-width:0.5;" x="72.0" xlink:href="#mf0c55a9a47" y="296.64"/>
      </g>
     </g>
     <g id="line2d_83">
      <g>
       <use style="stroke:#000000;stroke-width:0.5;" x="518.4" xlink:href="#ma4f294b3af" y="296.64"/>
      </g>
     </g>
    </g>
    <g id="ytick_9">
     <g id="line2d_84">
      <g>
       <use style="stroke:#000000;stroke-width:0.5;" x="72.0" xlink:href="#mf0c55a9a47" y="250.56"/>
      </g>
     </g>
     <g id="line2d_85">
      <g>
       <use style="stroke:#000000;stroke-width:0.5;" x="518.4" xlink:href="#ma4f294b3af" y="250.56"/>
      </g>
     </g>
    </g>
    <g id="ytick_10">
     <g id="line2d_86">
      <g>
       <use style="stroke:#000000;stroke-width:0.5;" x="72.0" xlink:href="#mf0c55a9a47" y="227.52"/>
      </g>
     </g>
     <g id="line2d_87">
      <g>
       <use style="stroke:#000000;stroke-width:0.5;" x="518.4" xlink:href="#ma4f294b3af" y="227.52"/>
      </g>
     </g>
    </g>
    <g id="ytick_11">
     <g id="line2d_88">
      <g>
       <use style="stroke:#000000;stroke-width:0.5;" x="72.0" xlink:href="#mf0c55a9a47" y="204.48"/>
      </g>
     </g>
     <g id="line2d_89">
      <g>
       <use style="stroke:#000000;stroke-width:0.5;" x="518.4" xlink:href="#ma4f294b3af" y="204.48"/>
      </g>
     </g>
    </g>
    <g id="ytick_12">
     <g id="line2d_90">
      <g>
       <use style="stroke:#000000;stroke-width:0.5;" x="72.0" xlink:href="#mf0c55a9a47" y="181.44"/>
      </g>
     </g>
     <g id="line2d_91">
      <g>
       <use style="stroke:#000000;stroke-width:0.5;" x="518.4" xlink:href="#ma4f294b3af" y="181.44"/>
      </g>
     </g>
    </g>
    <g id="ytick_13">
     <g id="line2d_92">
      <g>
       <use style="stroke:#000000;stroke-width:0.5;" x="72.0" xlink:href="#mf0c55a9a47" y="135.36"/>
      </g>
     </g>
     <g id="line2d_93">
      <g>
       <use style="stroke:#000000;stroke-width:0.5;" x="518.4" xlink:href="#ma4f294b3af" y="135.36"/>
      </g>
     </g>
    </g>
    <g id="ytick_14">
     <g id="line2d_94">
      <g>
       <use style="stroke:#000000;stroke-width:0.5;" x="72.0" xlink:href="#mf0c55a9a47" y="112.32"/>
      </g>
     </g>
     <g id="line2d_95">
      <g>
       <use style="stroke:#000000;stroke-width:0.5;" x="518.4" xlink:href="#ma4f294b3af" y="112.32"/>
      </g>
     </g>
    </g>
    <g id="ytick_15">
     <g id="line2d_96">
      <g>
       <use style="stroke:#000000;stroke-width:0.5;" x="72.0" xlink:href="#mf0c55a9a47" y="89.28"/>
      </g>
     </g>
     <g id="line2d_97">
      <g>
       <use style="stroke:#000000;stroke-width:0.5;" x="518.4" xlink:href="#ma4f294b3af" y="89.28"/>
      </g>
     </g>
    </g>
    <g id="ytick_16">
     <g id="line2d_98">
      <g>
       <use style="stroke:#000000;stroke-width:0.5;" x="72.0" xlink:href="#mf0c55a9a47" y="66.24"/>
      </g>
     </g>
     <g id="line2d_99">
      <g>
       <use style="stroke:#000000;stroke-width:0.5;" x="518.4" xlink:href="#ma4f294b3af" y="66.24"/>
      </g>
     </g>
    </g>
    <g id="text_11">
     <!-- $M_t, GeV$ -->
     <defs>
      <path d="
M20.0938 40.0938
L29.2969 40.0938
C31.2031 40.0938 32.2031 40.0938 32.2031 41.8906
C32.2031 43 31.5938 43 29.5938 43
L20.7969 43
L24.5 57.6875
C24.9062 59.0781 24.9062 59.2812 24.9062 60
C24.9062 61.6094 23.5938 62.5 22.2969 62.5
C21.5 62.5 19.2031 62.2031 18.4062 58.9844
L14.5 43
L5.09375 43
C3.09375 43 2.20312 43 2.20312 41.0938
C2.20312 40.0938 2.90625 40.0938 4.79688 40.0938
L13.7031 40.0938
L7.09375 13.7656
C6.29688 10.2812 6 9.28125 6 7.98438
C6 3.29688 9.29688 -1 14.9062 -1
C25 -1 30.4062 13.5781 30.4062 14.2656
C30.4062 14.875 30 15.1719 29.4062 15.1719
C29.2031 15.1719 28.7969 15.1719 28.5938 14.7656
C28.5 14.6719 28.4062 14.5625 27.7031 12.9688
C25.5938 7.98438 21 1 15.2031 1
C12.2031 1 12 3.5 12 5.6875
C12 5.78125 12 7.6875 12.2969 8.875
z
" id="CMMI12-116"/>
     </defs>
     <g transform="translate(42.0458479676 243.631998597)rotate(-90.0)scale(0.16 -0.16)">
      <use transform="translate(0.0 14.9439145441)scale(0.996264009963)" xlink:href="#CMMI12-77"/>
      <use transform="translate(94.3734250953 0.0)scale(0.697381766617)" xlink:href="#CMMI12-116"/>
      <use transform="translate(119.529866638 14.9439145441)scale(0.996264009963)" xlink:href="#CMMI12-59"/>
      <use transform="translate(163.231448961 14.9439145441)scale(0.996264009963)" xlink:href="#CMMI12-71"/>
      <use transform="translate(240.178310827 14.9439145441)scale(0.996264009963)" xlink:href="#CMMI12-101"/>
      <use transform="translate(285.390311843 14.9439145441)scale(0.996264009963)" xlink:href="#CMMI12-86"/>
     </g>
    </g>
   </g>
   <g id="patch_6">
    <path d="
M72 43.2
L518.4 43.2" style="fill:none;stroke:#000000;"/>
   </g>
   <g id="patch_7">
    <path d="
M518.4 388.8
L518.4 43.2" style="fill:none;stroke:#000000;"/>
   </g>
   <g id="patch_8">
    <path d="
M72 388.8
L518.4 388.8" style="fill:none;stroke:#000000;"/>
   </g>
   <g id="patch_9">
    <path d="
M72 388.8
L72 43.2" style="fill:none;stroke:#000000;"/>
   </g>
   <g id="text_12">
    <!-- Absolute stability -->
    <defs>
     <path d="
M38.7969 52.5
L24.2969 11.5312
L10.9062 52.5
L2 52.5
L19.7031 -0.328125
L16.5 -8.65625
C15.2031 -12.375 13.2969 -13.7812 9.79688 -13.7812
C8.59375 -13.7812 7.20312 -13.5781 5.40625 -13.1719
L5.40625 -20.7031
C7.09375 -21.5938 8.79688 -22 11 -22
C13.7031 -22 16.5938 -21.0938 18.7969 -19.4844
C21.4062 -17.5781 22.9062 -15.3594 24.5 -11.1406
L47.7969 52.5
z
" id="Nimbus_Sans_L_Regular-121"/>
     <path d="
M53.5 5.20312
C52.5938 5 52.2031 5 51.7031 5
C48.7969 5 47.2031 6.48438 47.2031 9.07812
L47.2031 39.7656
C47.2031 49.0156 40.4062 54 27.5 54
C19.9062 54 13.5938 51.8125 10.0938 47.9062
C7.70312 45.2031 6.70312 42.2188 6.5 37.0312
L14.9062 37.0312
C15.5938 43.3906 19.4062 46.2812 27.2031 46.2812
C34.7031 46.2812 38.9062 43.4844 38.9062 38.5156
L38.9062 36.3281
C38.9062 32.8281 36.7969 31.3438 30.2031 30.5469
C18.4062 29.0625 16.5938 28.6562 13.4062 27.3594
C7.29688 24.875 4.20312 20.1875 4.20312 13.4219
C4.20312 3.96875 10.7969 -2 21.4062 -2
C28 -2 33.2969 0.296875 39.2031 5.70312
C39.7969 0.390625 42.4062 -2 47.7969 -2
C49.5 -2 50.7969 -1.8125 53.5 -1.09375
z

M38.9062 16.75
C38.9062 13.9531 38.0938 12.2656 35.5938 9.98438
C32.2031 6.89062 28.0938 5.3125 23.2031 5.3125
C16.7031 5.3125 12.9062 8.39062 12.9062 13.6562
C12.9062 19.1406 16.5938 21.9219 25.5 23.2188
C34.2969 24.4062 36.0938 24.8125 38.9062 26.0938
z
" id="Nimbus_Sans_L_Regular-97"/>
     <path d="
M5.40625 73
L5.40625 -0.03125
L12.9062 -0.03125
L12.9062 7
C16.9062 0.890625 22.2031 -2 29.5 -2
C43.2969 -2 52.2969 9.25 52.2969 26.5938
C52.2969 43.5312 43.7031 54 29.9062 54
C22.7031 54 17.5938 51.2812 13.7031 45.3906
L13.7031 73
z

M28.2969 46.1875
C37.5938 46.1875 43.5938 38.125 43.5938 25.7031
C43.5938 13.8594 37.4062 5.8125 28.2969 5.8125
C19.5 5.8125 13.7031 13.7656 13.7031 26
C13.7031 38.2344 19.5 46.1875 28.2969 46.1875" id="Nimbus_Sans_L_Regular-98"/>
     <path d="
M51.2969 24
C51.2969 31.875 50.7031 36.5938 49.2031 40.4219
C45.7969 48.875 37.7969 54 28 54
C13.4062 54 4 42.8438 4 25.7031
C4 8.54688 13.0938 -2 27.7969 -2
C39.7969 -2 48.0938 4.875 50.2031 16.375
L41.7969 16.375
C39.5 9.35938 34.7969 5.70312 28.0938 5.70312
C22.7969 5.70312 18.2969 8.14062 15.5 12.6094
C13.5 15.6562 12.7969 18.7188 12.7031 24
z

M12.9062 30.8125
C13.5938 40.1875 19.5 46.2812 27.9062 46.2812
C36.0938 46.2812 42.4062 39.7031 42.4062 31.4062
C42.4062 31.2031 42.4062 31.0156 42.2969 30.8125
z
" id="Nimbus_Sans_L_Regular-101"/>
     <path d="
M47.4062 22
L54.9062 0
L65.2969 0
L39.7031 73
L27.7031 73
L1.70312 0
L11.5938 0
L19.2969 22
z

M44.7969 29.8125
L21.5938 29.8125
L33.5938 63
z
" id="Nimbus_Sans_L_Regular-65"/>
     <path d="
M15.2031 73
L6.79688 73
L6.79688 -0.03125
L15.2031 -0.03125
z
" id="Nimbus_Sans_L_Regular-108"/>
     <path d="
M15 52.4844
L6.70312 52.4844
L6.70312 0
L15 0
z

M15 73
L6.59375 73
L6.59375 62.4844
L15 62.4844
z
" id="Nimbus_Sans_L_Regular-105"/>
     <path d="
M27.2031 54
C12.5 54 3.59375 43.5312 3.59375 26
C3.59375 8.45312 12.4062 -2 27.2969 -2
C42 -2 51 8.45312 51 25.5938
C51 43.6406 42.2969 54 27.2031 54
M27.2969 46.2812
C36.7031 46.2812 42.2969 38.625 42.2969 25.7031
C42.2969 13.4531 36.5 5.70312 27.2969 5.70312
C18 5.70312 12.2969 13.3594 12.2969 26
C12.2969 38.5312 18 46.2812 27.2969 46.2812" id="Nimbus_Sans_L_Regular-111"/>
     <path d="
M25.4062 52.8125
L16.7969 52.8125
L16.7969 67
L8.5 67
L8.5 52.8125
L1.40625 52.8125
L1.40625 46
L8.5 46
L8.5 6.3125
C8.5 1 12.0938 -2 18.5938 -2
C20.5938 -2 22.5938 -1.8125 25.4062 -1.29688
L25.4062 5.71875
C24.2969 5.40625 23 5.3125 21.4062 5.3125
C17.7969 5.3125 16.7969 6.3125 16.7969 10.0156
L16.7969 46
L25.4062 46
z
" id="Nimbus_Sans_L_Regular-116"/>
     <path d="
M48.2031 0.515625
L48.2031 53
L39.9062 53
L39.9062 23.1094
C39.9062 12.3438 34.2969 5.3125 25.5938 5.3125
C19 5.3125 14.7969 9.32812 14.7969 15.6719
L14.7969 53
L6.5 53
L6.5 12.375
C6.5 3.625 13 -2 23.2031 -2
C30.9062 -2 35.7969 0.703125 40.7031 7.625
L40.7031 0.515625
z
" id="Nimbus_Sans_L_Regular-117"/>
     <path d="
M43.7969 37.9219
C43.7031 48.2031 36.9062 54 24.7969 54
C12.5938 54 4.70312 47.7188 4.70312 38.0625
C4.70312 29.8906 8.90625 26.0156 21.2969 23.0312
L29.0938 21.1406
C34.9062 19.7344 37.2031 17.6562 37.2031 13.875
C37.2031 9 32.2969 5.70312 25 5.70312
C20.5 5.70312 16.7031 7 14.5938 9.1875
C13.2969 10.6875 12.7031 12.1719 12.2031 15.8438
L3.40625 15.8438
C3.79688 3.76562 10.5938 -2 24.2969 -2
C37.5 -2 45.9062 4.45312 45.9062 14.5156
C45.9062 22.2812 41.5 26.5781 31.0938 29.0625
L23.0938 30.9531
C16.2969 32.5312 13.4062 34.7344 13.4062 38.4062
C13.4062 43.1875 17.7031 46.2812 24.5 46.2812
C31.2031 46.2812 34.7969 43.3906 35 37.9219
z
" id="Nimbus_Sans_L_Regular-115"/>
    </defs>
    <g transform="translate(339.84 365.76)scale(0.13 -0.13)">
     <use transform="scale(0.996264009963)" xlink:href="#Nimbus_Sans_L_Regular-65"/>
     <use transform="translate(66.4500311333 0.0)scale(0.996264009963)" xlink:href="#Nimbus_Sans_L_Regular-98"/>
     <use transform="translate(121.841708097 0.0)scale(0.996264009963)" xlink:href="#Nimbus_Sans_L_Regular-115"/>
     <use transform="translate(171.654908595 0.0)scale(0.996264009963)" xlink:href="#Nimbus_Sans_L_Regular-111"/>
     <use transform="translate(227.046585558 0.0)scale(0.996264009963)" xlink:href="#Nimbus_Sans_L_Regular-108"/>
     <use transform="translate(249.163369907 0.0)scale(0.996264009963)" xlink:href="#Nimbus_Sans_L_Regular-117"/>
     <use transform="translate(304.55504687 0.0)scale(0.996264009963)" xlink:href="#Nimbus_Sans_L_Regular-116"/>
     <use transform="translate(332.250216473 0.0)scale(0.996264009963)" xlink:href="#Nimbus_Sans_L_Regular-101"/>
     <use transform="translate(415.33706304 0.0)scale(0.996264009963)" xlink:href="#Nimbus_Sans_L_Regular-115"/>
     <use transform="translate(465.150263538 0.0)scale(0.996264009963)" xlink:href="#Nimbus_Sans_L_Regular-116"/>
     <use transform="translate(492.845433141 0.0)scale(0.996264009963)" xlink:href="#Nimbus_Sans_L_Regular-97"/>
     <use transform="translate(548.237110105 0.0)scale(0.996264009963)" xlink:href="#Nimbus_Sans_L_Regular-98"/>
     <use transform="translate(603.628787068 0.0)scale(0.996264009963)" xlink:href="#Nimbus_Sans_L_Regular-105"/>
     <use transform="translate(625.745571417 0.0)scale(0.996264009963)" xlink:href="#Nimbus_Sans_L_Regular-108"/>
     <use transform="translate(647.862355765 0.0)scale(0.996264009963)" xlink:href="#Nimbus_Sans_L_Regular-105"/>
     <use transform="translate(669.979140114 0.0)scale(0.996264009963)" xlink:href="#Nimbus_Sans_L_Regular-116"/>
     <use transform="translate(697.674309717 0.0)scale(0.996264009963)" xlink:href="#Nimbus_Sans_L_Regular-121"/>
    </g>
   </g>
   <g id="text_13">
    <!-- Metastability -->
    <defs>
     <path d="
M46.7969 -0.03125
L67.2969 61.1719
L67.2969 -0.03125
L76.0938 -0.03125
L76.0938 73
L63.2031 73
L42 9.39062
L20.4062 73
L7.5 73
L7.5 -0.03125
L16.2969 -0.03125
L16.2969 61.1719
L37 -0.03125
z
" id="Nimbus_Sans_L_Regular-77"/>
    </defs>
    <g transform="translate(121.665828988 161.549058401)rotate(-33.0)scale(0.13 -0.13)">
     <use transform="scale(0.996264009963)" xlink:href="#Nimbus_Sans_L_Regular-77"/>
     <use transform="translate(82.9884302275 0.0)scale(0.996264009963)" xlink:href="#Nimbus_Sans_L_Regular-101"/>
     <use transform="translate(138.380107191 0.0)scale(0.996264009963)" xlink:href="#Nimbus_Sans_L_Regular-116"/>
     <use transform="translate(166.075276794 0.0)scale(0.996264009963)" xlink:href="#Nimbus_Sans_L_Regular-97"/>
     <use transform="translate(221.466953757 0.0)scale(0.996264009963)" xlink:href="#Nimbus_Sans_L_Regular-115"/>
     <use transform="translate(271.280154256 0.0)scale(0.996264009963)" xlink:href="#Nimbus_Sans_L_Regular-116"/>
     <use transform="translate(298.975323859 0.0)scale(0.996264009963)" xlink:href="#Nimbus_Sans_L_Regular-97"/>
     <use transform="translate(354.367000822 0.0)scale(0.996264009963)" xlink:href="#Nimbus_Sans_L_Regular-98"/>
     <use transform="translate(409.758677785 0.0)scale(0.996264009963)" xlink:href="#Nimbus_Sans_L_Regular-105"/>
     <use transform="translate(431.875462134 0.0)scale(0.996264009963)" xlink:href="#Nimbus_Sans_L_Regular-108"/>
     <use transform="translate(453.992246483 0.0)scale(0.996264009963)" xlink:href="#Nimbus_Sans_L_Regular-105"/>
     <use transform="translate(476.109030832 0.0)scale(0.996264009963)" xlink:href="#Nimbus_Sans_L_Regular-116"/>
     <use transform="translate(503.804200435 0.0)scale(0.996264009963)" xlink:href="#Nimbus_Sans_L_Regular-121"/>
    </g>
   </g>
   <g id="text_14">
    <!-- Instability -->
    <defs>
     <path d="
M19.4062 73
L10 73
L10 -0.03125
L19.4062 -0.03125
z
" id="Nimbus_Sans_L_Regular-73"/>
     <path d="
M7 52.4844
L7 0
L15.4062 0
L15.4062 28.9531
C15.4062 39.6719 21 46.6875 29.5938 46.6875
C36.2031 46.6875 40.4062 42.6719 40.4062 36.3594
L40.4062 0
L48.7031 0
L48.7031 39.6719
C48.7031 48.3906 42.2031 54 32.0938 54
C24.2969 54 19.2969 50.9844 14.7031 43.6875
L14.7031 52.4844
z
" id="Nimbus_Sans_L_Regular-110"/>
    </defs>
    <g transform="translate(94.32 77.76)scale(0.13 -0.13)">
     <use transform="scale(0.996264009963)" xlink:href="#Nimbus_Sans_L_Regular-73"/>
     <use transform="translate(27.6951696032 0.0)scale(0.996264009963)" xlink:href="#Nimbus_Sans_L_Regular-110"/>
     <use transform="translate(83.0868465666 0.0)scale(0.996264009963)" xlink:href="#Nimbus_Sans_L_Regular-115"/>
     <use transform="translate(132.900047065 0.0)scale(0.996264009963)" xlink:href="#Nimbus_Sans_L_Regular-116"/>
     <use transform="translate(160.595216668 0.0)scale(0.996264009963)" xlink:href="#Nimbus_Sans_L_Regular-97"/>
     <use transform="translate(215.986893631 0.0)scale(0.996264009963)" xlink:href="#Nimbus_Sans_L_Regular-98"/>
     <use transform="translate(271.378570595 0.0)scale(0.996264009963)" xlink:href="#Nimbus_Sans_L_Regular-105"/>
     <use transform="translate(293.495354943 0.0)scale(0.996264009963)" xlink:href="#Nimbus_Sans_L_Regular-108"/>
     <use transform="translate(315.612139292 0.0)scale(0.996264009963)" xlink:href="#Nimbus_Sans_L_Regular-105"/>
     <use transform="translate(337.728923641 0.0)scale(0.996264009963)" xlink:href="#Nimbus_Sans_L_Regular-116"/>
     <use transform="translate(365.424093244 0.0)scale(0.996264009963)" xlink:href="#Nimbus_Sans_L_Regular-121"/>
    </g>
   </g>
   <g id="text_15">
    <!-- $10^{7}$ -->
    <g transform="translate(83.16 151.488)scale(0.12 -0.12)">
     <use transform="scale(0.996264009963)" xlink:href="#CMR17-49"/>
     <use transform="translate(45.6904771171 0.0)scale(0.996264009963)" xlink:href="#CMR17-48"/>
     <use transform="translate(91.3809542341 36.1536389419)scale(0.697381766617)" xlink:href="#CMR17-55"/>
    </g>
   </g>
   <g id="text_16">
    <!-- $10^{8}$ -->
    <g transform="translate(83.16 195.264)scale(0.12 -0.12)">
     <use transform="scale(0.996264009963)" xlink:href="#CMR17-49"/>
     <use transform="translate(45.6904771171 0.0)scale(0.996264009963)" xlink:href="#CMR17-48"/>
     <use transform="translate(91.3809542341 36.1536389419)scale(0.697381766617)" xlink:href="#CMR17-56"/>
    </g>
   </g>
   <g id="text_17">
    <!-- $10^{9}$ -->
    <defs>
     <path d="
M35.2031 29.125
C35.2031 7.25 26.0938 0.484375 18.5938 0.484375
C16.2969 0.484375 10.7031 0.484375 8.40625 4.59375
C11 4.1875 12.9062 5.57812 12.9062 8.09375
C12.9062 10.8125 10.7031 11.7031 9.29688 11.7031
C8.40625 11.7031 5.70312 11.2969 5.70312 7.90625
C5.70312 1.10938 11.5938 -2 18.7969 -2
C30.2969 -2 42 10.5312 42 32.3906
C42 59.6406 30.7969 65.2969 23.2031 65.2969
C13.2969 65.2969 3.79688 56.6875 3.79688 43.4062
C3.79688 31.1094 11.9062 22 22.0938 22
C30.5 22 34.2031 29.7344 35.2031 33
z

M22.2969 23.5938
C19.5938 23.5938 15.7969 24.0938 12.7031 30.0312
C10.5938 33.8906 10.5938 38.4531 10.5938 43.2969
C10.5938 49.1562 10.5938 53.2031 13.4062 57.5625
C14.7969 59.6406 17.4062 63 23.2031 63
C35 63 35 45.0781 35 41.125
C35 34.0938 31.7969 23.5938 22.2969 23.5938" id="CMR17-57"/>
    </defs>
    <g transform="translate(83.16 229.824)scale(0.12 -0.12)">
     <use transform="scale(0.996264009963)" xlink:href="#CMR17-49"/>
     <use transform="translate(45.6904771171 0.0)scale(0.996264009963)" xlink:href="#CMR17-48"/>
     <use transform="translate(91.3809542341 36.1536389419)scale(0.697381766617)" xlink:href="#CMR17-57"/>
    </g>
   </g>
   <g id="text_18">
    <!-- $10^{10}$ -->
    <g transform="translate(83.16 252.864)scale(0.12 -0.12)">
     <use transform="scale(0.996264009963)" xlink:href="#CMR17-49"/>
     <use transform="translate(45.6904771171 0.0)scale(0.996264009963)" xlink:href="#CMR17-48"/>
     <use transform="translate(91.3809542341 36.1536389419)scale(0.697381766617)" xlink:href="#CMR17-49"/>
     <use transform="translate(123.364136198 36.1536389419)scale(0.697381766617)" xlink:href="#CMR17-48"/>
    </g>
   </g>
   <g id="text_19">
    <!-- $10^{11}$ -->
    <g transform="translate(83.16 268.992)scale(0.12 -0.12)">
     <use transform="scale(0.996264009963)" xlink:href="#CMR17-49"/>
     <use transform="translate(45.6904771171 0.0)scale(0.996264009963)" xlink:href="#CMR17-48"/>
     <use transform="translate(91.3809542341 36.1536389419)scale(0.697381766617)" xlink:href="#CMR17-49"/>
     <use transform="translate(123.364136198 36.1536389419)scale(0.697381766617)" xlink:href="#CMR17-49"/>
    </g>
   </g>
   <g id="text_20">
    <!-- $10^{12}$ -->
    <g transform="translate(83.16 280.512)scale(0.12 -0.12)">
     <use transform="scale(0.996264009963)" xlink:href="#CMR17-49"/>
     <use transform="translate(45.6904771171 0.0)scale(0.996264009963)" xlink:href="#CMR17-48"/>
     <use transform="translate(91.3809542341 36.1536389419)scale(0.697381766617)" xlink:href="#CMR17-49"/>
     <use transform="translate(123.364136198 36.1536389419)scale(0.697381766617)" xlink:href="#CMR17-50"/>
    </g>
   </g>
   <g id="text_21">
    <!-- $10^{13}$ -->
    <g transform="translate(496.08 61.632)scale(0.12 -0.12)">
     <use transform="scale(0.996264009963)" xlink:href="#CMR17-49"/>
     <use transform="translate(45.6904771171 0.0)scale(0.996264009963)" xlink:href="#CMR17-48"/>
     <use transform="translate(91.3809542341 36.1536389419)scale(0.697381766617)" xlink:href="#CMR17-49"/>
     <use transform="translate(123.364136198 36.1536389419)scale(0.697381766617)" xlink:href="#CMR17-51"/>
    </g>
   </g>
   <g id="text_22">
    <!-- $10^{15}$ -->
    <g transform="translate(496.08 75.456)scale(0.12 -0.12)">
     <use transform="scale(0.996264009963)" xlink:href="#CMR17-49"/>
     <use transform="translate(45.6904771171 0.0)scale(0.996264009963)" xlink:href="#CMR17-48"/>
     <use transform="translate(91.3809542341 36.1536389419)scale(0.697381766617)" xlink:href="#CMR17-49"/>
     <use transform="translate(123.364136198 36.1536389419)scale(0.697381766617)" xlink:href="#CMR17-53"/>
    </g>
   </g>
   <g id="text_23">
    <!-- $10^{19}$ -->
    <g transform="translate(496.08 86.976)scale(0.12 -0.12)">
     <use transform="scale(0.996264009963)" xlink:href="#CMR17-49"/>
     <use transform="translate(45.6904771171 0.0)scale(0.996264009963)" xlink:href="#CMR17-48"/>
     <use transform="translate(91.3809542341 36.1536389419)scale(0.697381766617)" xlink:href="#CMR17-49"/>
     <use transform="translate(123.364136198 36.1536389419)scale(0.697381766617)" xlink:href="#CMR17-57"/>
    </g>
   </g>
   <g id="text_24">
    <!-- $10^{17}$ -->
    <g transform="translate(161.28 319.68)scale(0.12 -0.12)">
     <use transform="scale(0.996264009963)" xlink:href="#CMR17-49"/>
     <use transform="translate(45.6904771171 0.0)scale(0.996264009963)" xlink:href="#CMR17-48"/>
     <use transform="translate(91.3809542341 36.1536389419)scale(0.697381766617)" xlink:href="#CMR17-49"/>
     <use transform="translate(123.364136198 36.1536389419)scale(0.697381766617)" xlink:href="#CMR17-55"/>
    </g>
   </g>
   <g id="text_25">
    <!-- $10^{18}$ -->
    <g transform="translate(250.56 262.08)scale(0.12 -0.12)">
     <use transform="scale(0.996264009963)" xlink:href="#CMR17-49"/>
     <use transform="translate(45.6904771171 0.0)scale(0.996264009963)" xlink:href="#CMR17-48"/>
     <use transform="translate(91.3809542341 36.1536389419)scale(0.697381766617)" xlink:href="#CMR17-49"/>
     <use transform="translate(123.364136198 36.1536389419)scale(0.697381766617)" xlink:href="#CMR17-56"/>
    </g>
   </g>
   <g id="text_26">
    <!-- $M_{pl}$ -->
    <defs>
     <path d="
M25.4062 66.5156
C25.5 66.9062 25.7031 67.5 25.7031 68
C25.7031 69 24.7031 69 24.5 69
C24.4062 69 20.7969 68.6406 19 68.3906
C17.2969 68.3906 15.7969 68.0938 14 68.0938
C11.5938 67.8906 10.9062 67.7969 10.9062 66
C10.9062 65 11.9062 65 12.9062 65
C18 65 18 64.0938 18 63.0938
C18 62.7188 18 62.5156 17.5 60.7188
L5.09375 11.4219
C4.79688 10.3281 4.59375 9.53125 4.59375 7.95312
C4.59375 2.98438 8.29688 -1 13.4062 -1
C16.7031 -1 18.9062 1.1875 20.5 4.28125
C22.2031 7.54688 23.5938 13.8125 23.5938 14.2031
C23.5938 14.7031 23.2031 15.1094 22.5938 15.1094
C21.7031 15.1094 21.5938 14.6094 21.2031 13.125
C19.4062 6.26562 17.5938 1 13.5938 1
C10.5938 1 10.5938 4.17188 10.5938 5.57812
C10.5938 5.96875 10.5938 8.04688 11.2969 10.8438
z
" id="CMMI12-108"/>
     <path d="
M4.29688 -12.3281
C3.59375 -15.3125 3.20312 -16.1094 -0.90625 -16.1094
C-2.09375 -16.1094 -3.09375 -16.1094 -3.09375 -18
C-3.09375 -18.2031 -3 -19 -1.90625 -19
C-0.59375 -19 0.796875 -19 2.09375 -19
L6.40625 -19
C8.5 -19 13.5938 -19 15.7031 -19
C16.2969 -19 17.5 -19 17.5 -17.2031
C17.5 -16.1094 16.7969 -16.1094 15.0938 -16.1094
C10.5 -16.1094 10.2031 -15.4219 10.2031 -14.6406
C10.2031 -13.4531 14.7031 3.42188 15.2969 5.6875
C16.4062 2.89062 19.0938 -1 24.2969 -1
C35.5938 -1 47.7969 13.6719 47.7969 28.3438
C47.7969 37.5156 42.5938 44 35.0938 44
C28.7031 44 23.2969 37.8125 22.2031 36.4219
C21.4062 41.4062 17.5 44 13.5 44
C10.5938 44 8.29688 42.6094 6.40625 38.8125
C4.59375 35.2188 3.20312 29.1406 3.20312 28.7344
C3.20312 28.3438 3.59375 27.8438 4.29688 27.8438
C5.09375 27.8438 5.20312 27.9375 5.79688 30.2344
C7.29688 36.125 9.20312 42.0156 13.2031 42.0156
C15.5 42.0156 16.2969 40.4219 16.2969 37.4531
C16.2969 35.0781 16 34.0781 15.5938 32.2969
z

M21.5938 31.1406
C22.2969 33.9219 25.0938 36.8281 26.7031 38.2188
C27.7969 39.2188 31.0938 42.0156 34.9062 42.0156
C39.2969 42.0156 41.2969 37.625 41.2969 32.4375
C41.2969 27.6406 38.5 16.3594 36 11.1719
C33.5 5.78125 28.9062 1 24.2969 1
C17.5 1 16.4062 9.57812 16.4062 9.98438
C16.4062 10.2812 16.5938 11.0781 16.7031 11.5781
z
" id="CMMI12-112"/>
    </defs>
    <g transform="translate(362.16 204.48)scale(0.12 -0.12)">
     <use transform="translate(0.0 14.9439145441)scale(0.996264009963)" xlink:href="#CMMI12-77"/>
     <use transform="translate(94.3734250953 0.0)scale(0.697381766617)" xlink:href="#CMMI12-112"/>
     <use transform="translate(128.644931361 0.0)scale(0.697381766617)" xlink:href="#CMMI12-108"/>
    </g>
   </g>
  </g>
 </g>
 <defs>
  <clipPath id="p7ff5b81e1d">
   <rect height="345.6" width="446.4" x="72.0" y="43.2"/>
  </clipPath>
 </defs>
</svg>
